<?xml version="1.0" standalone="no"?>
<!DOCTYPE svg PUBLIC "-//W3C//DTD SVG 1.1//EN" "http://www.w3.org/Graphics/SVG/1.1/DTD/svg11.dtd" >
<svg>
<metadata>
Created by FontForge 20110222 at Fri Nov 15 01:46:58 2013
 By Orthosie Webhosting
Copyright (c) 2011 by act All rights reserved.
</metadata>
<defs>
<font id="inkfont300" horiz-adv-x="606" >
  <font-face 
    font-family="inkfont300"
    font-weight="400"
    font-stretch="normal"
    units-per-em="1000"
    panose-1="2 0 0 0 0 0 0 0 0 0"
    ascent="750"
    descent="-250"
    x-height="503"
    cap-height="703"
    bbox="-53 -237 1092 883"
    underline-thickness="50"
    underline-position="-50"
    unicode-range="U+0020-FB04"
  />
<missing-glyph horiz-adv-x="510" 
d="M5 700h500v-700h-500v700zM425 650h-340l170 -255zM455 95v510l-170 -255zM225 350l-170 255v-510zM425 50l-170 255l-170 -255h340z" />
    <glyph glyph-name="uniFB00" unicode="ff" horiz-adv-x="600" 
d="M88 446h-63v57h63v18q0 109 66 156q43 31 107 31q19 0 31 -2v-61q-9 2 -24 2q-112 0 -112 -127v-17h227v18q0 109 66 156q43 31 107 31q19 0 31 -2v-61q-9 2 -24 2q-112 0 -112 -127v-17h128v-57h-128v-446h-68v446h-227v-446h-68v446z" />
    <glyph glyph-name="uniFB01" unicode="fi" horiz-adv-x="546" 
d="M88 446h-63v57h63v18q0 109 66 156q43 31 107 31q19 0 31 -2v-61q-10 2 -25 2q-111 0 -111 -126v-18h238q61 0 61 -61v-361q0 -22 22 -22h42v-59h-71q-61 0 -61 61v363q0 22 -22 22h-209v-446h-68v446zM385 703h66v-86h-66v86z" />
    <glyph glyph-name="uniFB02" unicode="fl" horiz-adv-x="540" 
d="M388 703q61 0 61 -61v-561q0 -22 22 -22h42v-59h-71q-61 0 -61 61v561q0 22 -22 22h-91q-112 0 -112 -123v-18h128v-57h-128v-446h-68v446h-63v57h63v18q0 182 173 182h127z" />
    <glyph glyph-name="uniFB03" unicode="ffi" horiz-adv-x="841" 
d="M88 446h-63v57h63v18q0 109 66 156q43 31 107 31q19 0 31 -2v-61q-10 2 -24 2q-112 0 -112 -127v-17h227v18q0 109 66 156q43 31 107 31q19 0 31 -2v-61q-10 2 -24 2q-112 0 -112 -127v-17h238q61 0 61 -61v-361q0 -22 22 -22h42v-59h-71q-61 0 -61 61v363q0 22 -22 22
h-209v-446h-68v446h-227v-446h-68v446zM680 703h66v-86h-66v86z" />
    <glyph glyph-name="uniFB04" unicode="ffl" horiz-adv-x="834" 
d="M683 703q61 0 61 -61v-561q0 -22 22 -22h42v-59h-71q-61 0 -61 61v561q0 22 -22 22h-91q-112 0 -112 -123v-18h128v-57h-128v-446h-68v446h-227v-446h-68v446h-63v57h63v21q0 107 64 153q43 31 107 31q20 0 33 -2v-61q-11 2 -26 2q-110 0 -110 -124v-20h227v18
q0 182 173 182h127z" />
    <glyph glyph-name="f_j.liga" unicode="fj" horiz-adv-x="568" 
d="M88 446h-63v57h63v18q0 109 66 156q43 31 107 31q19 0 31 -2v-61q-10 2 -24 2q-112 0 -112 -127v-17h261q61 0 61 -61v-461q0 -109 -66 -156q-44 -31 -109 -31q-18 0 -29 3v59q9 -1 22 -1q114 0 114 129v440q0 22 -22 22h-232v-446h-68v446zM409 703h66v-86h-66v86z" />
    <glyph glyph-name=".notdef" horiz-adv-x="510" 
d="M5 700h500v-700h-500v700zM425 650h-340l170 -255zM455 95v510l-170 -255zM225 350l-170 255v-510zM425 50l-170 255l-170 -255h340z" />
    <glyph glyph-name=".null" horiz-adv-x="0" 
 />
    <glyph glyph-name="nonmarkingreturn" horiz-adv-x="333" 
 />
    <glyph glyph-name="space" unicode=" " horiz-adv-x="272" 
 />
    <glyph glyph-name="space" unicode="&#xa0;" horiz-adv-x="272" 
 />
    <glyph glyph-name="exclam" unicode="!" horiz-adv-x="297" 
d="M113 703h70l-3 -519h-64zM111 77h77v-77h-77v77z" />
    <glyph glyph-name="quotedbl" unicode="&#x22;" horiz-adv-x="312" 
d="M187 713h59v-169h-59v169zM66 713h59v-169h-59v169z" />
    <glyph glyph-name="numbersign" unicode="#" horiz-adv-x="713" 
d="M183 195h-142l10 56h141l35 196h-141l9 56h142l35 200h61l-35 -200h173l35 200h61l-35 -200h140l-10 -56h-140l-34 -196h139l-9 -56h-140l-34 -195h-61l34 195h-173l-34 -195h-61zM426 251l35 196h-173l-34 -196h172z" />
    <glyph glyph-name="dollar" unicode="$" horiz-adv-x="532" 
d="M98 162q58 -109 178 -109q62 0 101 37q38 35 38 88q0 57 -54 98q-27 21 -119 64q-84 39 -120 73q-54 51 -54 127q0 66 49 114t130 58v95h57v-93q63 -6 107 -31q57 -33 57 -89v-50h-66v33q0 31 -35 52q-34 21 -83 21q-66 0 -106 -32q-38 -31 -38 -77q0 -55 54 -94
q25 -18 120 -61q82 -38 119 -73q54 -53 54 -132q0 -73 -49 -127q-52 -56 -134 -64v-93h-57v93q-87 9 -153 70q-32 31 -48 60z" />
    <glyph glyph-name="percent" unicode="%" horiz-adv-x="743" 
d="M103 478q-41 40 -41 98q0 57 41 98t99 41t100 -41q41 -41 41 -98q0 -58 -41 -98q-41 -41 -100 -41q-58 0 -99 41zM604 703h71l-535 -703h-72zM260 517q24 24 24 59q0 34 -24 58q-24 25 -58 25t-58 -25q-23 -24 -23 -58q0 -35 23 -59q24 -24 58 -24t58 24zM441 225
q41 41 99 41t100 -41q41 -41 41 -99q0 -57 -41 -97q-42 -41 -100 -41t-99 41q-41 40 -41 97q0 58 41 99zM483 68q23 -24 57 -24t58 24t24 59q0 34 -24 58q-24 25 -58 25t-57 -25q-23 -24 -23 -58q0 -35 23 -59z" />
    <glyph glyph-name="ampersand" unicode="&#x26;" horiz-adv-x="624" 
d="M78 308q35 54 95 71v2q-24 8 -48 31q-49 47 -49 125q0 79 56 128q57 50 152 50q38 0 82 -11l-20 -57q-33 7 -58 7q-61 0 -100 -33q-40 -34 -40 -88q0 -127 151 -127h146v97h69v-97h93v-62h-93v-103q0 -123 -63 -189q-60 -64 -168 -64q-104 0 -171 60q-66 59 -66 148
q0 62 32 112zM161 96q46 -43 122 -43q162 0 162 190v101h-144q-90 0 -138 -40q-46 -38 -46 -106q0 -62 44 -102z" />
    <glyph glyph-name="quotesingle" unicode="'" horiz-adv-x="191" 
d="M66 713h59v-169h-59v169z" />
    <glyph glyph-name="parenleft" unicode="(" horiz-adv-x="309" 
d="M193 730h64q-109 -184 -109 -393q0 -231 115 -432h-63q-115 188 -115 427q0 225 108 398z" />
    <glyph glyph-name="parenright" unicode=")" horiz-adv-x="309" 
d="M46 -95q115 201 115 432q0 209 -109 393h64q108 -175 108 -398q0 -239 -115 -427h-63z" />
    <glyph glyph-name="asterisk" unicode="*" horiz-adv-x="477" 
d="M99 375l94 120v2l-147 42l20 63l144 -53l-6 154h68l-7 -154l146 52l20 -61l-148 -43v-2l94 -120l-52 -39l-86 127h-2l-85 -126z" />
    <glyph glyph-name="plus" unicode="+" 
d="M42 313h231v255h61v-255h230v-58h-230v-255h-61v255h-231v58z" />
    <glyph glyph-name="comma" unicode="," horiz-adv-x="215" 
d="M153 82l-73 -179h-57l57 179h73z" />
    <glyph glyph-name="hyphen" unicode="-" horiz-adv-x="432" 
d="M74 315h284v-62h-284v62z" />
    <glyph glyph-name="hyphen" unicode="&#xad;" horiz-adv-x="432" 
d="M74 315h284v-62h-284v62z" />
    <glyph glyph-name="period" unicode="." horiz-adv-x="215" 
d="M69 80h77v-80h-77v80z" />
    <glyph glyph-name="slash" unicode="/" horiz-adv-x="325" 
d="M257 742h63l-253 -784h-64z" />
    <glyph glyph-name="zero" unicode="0" horiz-adv-x="602" 
d="M59 352q0 363 242 363q243 0 243 -363q0 -364 -243 -364q-242 0 -242 364zM472 352q0 298 -171 298t-171 -298q0 -299 171 -299t171 299z" />
    <glyph glyph-name="one" unicode="1" horiz-adv-x="476" 
d="M64 62h157v516q0 20 1 39h-2q-7 -15 -35 -42l-75 -75l-44 45l159 158h66v-641h154v-62h-381v62z" />
    <glyph glyph-name="two" unicode="2" horiz-adv-x="564" 
d="M100 220q38 41 128 93q98 56 128 83q58 52 58 121q0 57 -39 94q-40 38 -105 38q-52 0 -89 -23q-36 -23 -36 -53v-33h-66v52q0 60 70 95q56 28 123 28q98 0 157 -58q57 -55 57 -139q0 -83 -58 -145q-38 -41 -128 -92q-98 -57 -128 -83q-58 -52 -58 -116q0 -20 23 -20h294
q22 0 22 22v47h65v-70q0 -61 -61 -61h-352q-35 0 -49 16t-14 53q0 88 58 151z" />
    <glyph glyph-name="three" unicode="3" horiz-adv-x="528" 
d="M68 138q72 -84 184 -84q64 0 111 42q48 44 48 110q0 68 -52 110q-48 38 -119 38h-49l-16 41l173 208q17 23 36 39v2q-20 -3 -57 -3h-183q-22 0 -22 -22v-47h-65v70q0 61 59 61h357v-46l-207 -243q82 -5 142 -49q75 -56 75 -158q0 -90 -66 -154q-67 -65 -166 -65
q-139 0 -225 98z" />
    <glyph glyph-name="four" unicode="4" horiz-adv-x="562" 
d="M15 240l342 463h75v-447h112v-62h-112v-194h-70v194h-347v46zM363 543q0 30 3 68h-2q-17 -29 -36 -54l-195 -258q-19 -25 -37 -44v-2q28 3 58 3h209v287z" />
    <glyph glyph-name="five" unicode="5" horiz-adv-x="569" 
d="M98 137q53 -83 163 -83q75 0 125 47t50 117q0 72 -53 119q-52 46 -129 46q-79 0 -135 -39l-36 15l30 283q6 61 61 61h231q60 0 60 -61v-70h-65v47q0 22 -22 22h-178q-19 0 -22 -22l-18 -159q-3 -25 -6 -40h2q44 26 106 26q106 0 177 -67q69 -66 69 -162q0 -95 -70 -161
q-71 -68 -177 -68q-87 0 -156 50q-34 25 -51 50z" />
    <glyph glyph-name="six" unicode="6" horiz-adv-x="560" 
d="M113 80q-70 89 -70 229q0 155 73 270q86 136 236 136q77 0 129 -29l-26 -61q-44 25 -102 25q-103 0 -168 -91q-56 -80 -67 -198h2q51 85 179 85q96 0 158 -62q61 -63 61 -161q0 -107 -64 -172q-62 -63 -157 -63q-113 0 -184 92zM168 124q54 -71 128 -71q70 0 111 48
q40 47 40 121q0 73 -43 118q-44 44 -116 44q-68 0 -120 -39q-50 -37 -50 -81q0 -75 50 -140z" />
    <glyph glyph-name="seven" unicode="7" horiz-adv-x="512" 
d="M385 576q20 38 39 65v2q-18 -2 -53 -2h-253q-22 0 -22 -22v-47h-66v70q0 61 60 61h415v-48l-348 -655h-78z" />
    <glyph glyph-name="eight" unicode="8" horiz-adv-x="570" 
d="M110 337q31 31 62 47v2q-96 45 -96 145q0 77 55 128q59 56 157 56t157 -53q58 -51 58 -134q0 -107 -94 -174v-2q113 -58 113 -161q0 -83 -68 -143q-69 -60 -168 -60q-98 0 -166 55q-73 59 -73 155q0 77 63 139zM344 384q22 0 54 44q35 48 35 98q0 56 -41 91
q-40 33 -104 33q-65 0 -104 -35q-38 -33 -38 -84q0 -50 40 -82q27 -21 95 -46q51 -19 63 -19zM170 93q48 -40 116 -40q65 0 113 39q51 40 51 100q0 50 -39 82q-27 23 -95 50q-66 28 -82 28q-27 0 -68 -43q-47 -50 -47 -108q0 -66 51 -108z" />
    <glyph glyph-name="nine" unicode="9" horiz-adv-x="560" 
d="M105 78q44 -25 102 -25q103 0 168 92q57 80 67 198h-2q-52 -86 -179 -86q-96 0 -157 62q-61 63 -61 161q0 107 64 172q61 63 156 63q113 0 184 -91q70 -90 70 -230q0 -155 -73 -270q-86 -136 -236 -136q-77 0 -129 29zM392 358q50 37 50 81q0 75 -50 140q-54 71 -128 71
q-70 0 -111 -48q-40 -47 -40 -121q0 -73 44 -118q43 -44 115 -44q68 0 120 39z" />
    <glyph glyph-name="colon" unicode=":" horiz-adv-x="283" 
d="M103 503h77v-80h-77v80zM103 80h77v-80h-77v80z" />
    <glyph glyph-name="semicolon" unicode=";" horiz-adv-x="283" 
d="M103 503h77v-80h-77v80zM102 82h73l-64 -179h-57z" />
    <glyph glyph-name="less" unicode="&#x3c;" 
d="M69 309l452 202v-67l-367 -159v-2l367 -159v-67l-452 202v50z" />
    <glyph glyph-name="equal" unicode="=" 
d="M70 400h466v-58h-466v58zM70 226h466v-58h-466v58z" />
    <glyph glyph-name="greater" unicode="&#x3e;" 
d="M77 124l367 159v2l-367 159v67l452 -202v-50l-452 -202v67z" />
    <glyph glyph-name="question" unicode="?" horiz-adv-x="431" 
d="M153 229q0 84 88 166q87 82 87 141q0 49 -37 82t-94 33q-68 0 -121 -43l-37 51q62 57 161 57q86 0 143 -49q57 -51 57 -128q0 -87 -89 -169q-90 -81 -90 -143v-43h-68v45zM149 77h77v-77h-77v77z" />
    <glyph glyph-name="at" unicode="@" horiz-adv-x="739" 
d="M146 502q104 107 251 107q126 0 190 -58q55 -50 55 -131v-315h71v-56h-269q-85 0 -143 57q-57 56 -57 135t57 135q57 57 143 57h130q-2 50 -42 82q-46 35 -130 35q-122 0 -207 -91q-84 -90 -84 -217q0 -129 84 -217q85 -89 212 -89v-60q-155 0 -261 107
q-105 106 -105 259t105 260zM353 145q40 -40 97 -40h124v275h-122q-59 0 -99 -41q-39 -40 -39 -97t39 -97z" />
    <glyph glyph-name="A" unicode="A" horiz-adv-x="657" 
d="M12 62h13q28 0 36 22l230 619h75l230 -619q8 -22 36 -22h12v-62h-32q-38 0 -53 11q-17 11 -30 47l-61 166h-279l-62 -166q-14 -36 -29 -47q-16 -11 -53 -11h-33v62zM449 285l-93 251q-12 33 -27 91h-2q-15 -58 -27 -91l-92 -251h241z" />
    <glyph glyph-name="B" unicode="B" 
d="M105 641h-65v62h299q84 0 136 -47q54 -49 54 -130q0 -109 -90 -153v-2q54 -15 86 -63q32 -47 32 -111q0 -91 -61 -145q-58 -52 -149 -52h-181q-61 0 -61 61v580zM338 398q53 0 86 34t33 89q0 54 -32 87q-33 33 -88 33h-162v-243h163zM175 84q0 -22 22 -22h150
q64 0 100 37q37 37 37 100t-38 101t-100 38h-171v-254z" />
    <glyph glyph-name="C" unicode="C" horiz-adv-x="694" 
d="M137 612q100 103 248 103q92 0 169 -35q94 -42 94 -114v-58h-66v39q0 46 -67 76q-59 26 -128 26q-118 0 -196 -82q-80 -83 -80 -210t80 -214q80 -89 199 -89q145 0 230 99l40 -51q-97 -114 -271 -114q-153 0 -253 108q-98 105 -98 261q0 152 99 255z" />
    <glyph glyph-name="D" unicode="D" horiz-adv-x="715" 
d="M107 641h-65v62h282q161 0 256 -92q97 -95 97 -259q0 -166 -97 -260q-95 -92 -256 -92h-156q-61 0 -61 61v580zM177 84q0 -22 22 -22h118q132 0 208 75q79 76 79 215q0 138 -79 215q-76 74 -208 74h-140v-557z" />
    <glyph glyph-name="E" unicode="E" horiz-adv-x="558" 
d="M107 641h-65v62h402q61 0 61 -61v-70h-66v47q0 22 -22 22h-240v-256h264v-62h-264v-239q0 -22 22 -22h247q22 0 22 22v47h65v-70q0 -61 -61 -61h-304q-61 0 -61 61v580z" />
    <glyph glyph-name="F" unicode="F" horiz-adv-x="499" 
d="M107 641h-65v62h374q60 0 60 -61v-70h-65v47q0 22 -22 22h-212v-264h255v-62h-255v-315h-70v641z" />
    <glyph glyph-name="G" unicode="G" horiz-adv-x="730" 
d="M140 610q101 105 250 105q163 0 246 -86l-41 -52q-78 72 -204 72q-119 0 -199 -85q-80 -84 -80 -211q0 -129 79 -214t199 -85q139 0 222 103v87q0 22 -22 22h-43v62h70q61 0 61 -61v-267h-64v53q0 15 1 30h-2q-82 -95 -230 -95q-145 0 -244 103q-100 105 -100 262
q0 152 101 257z" />
    <glyph glyph-name="H" unicode="H" horiz-adv-x="757" 
d="M107 619q0 22 -22 22h-43v62h74q61 0 61 -61v-259h404v259q0 61 60 61h75v-62h-43q-22 0 -22 -22v-619h-70v321h-404v-321h-70v619z" />
    <glyph glyph-name="I" unicode="I" horiz-adv-x="293" 
d="M46 62h66v579h-66v62h201v-62h-67v-579h67v-62h-201v62z" />
    <glyph glyph-name="J" unicode="J" horiz-adv-x="505" 
d="M24 225h70v-24q0 -77 41 -115q34 -32 88 -32q53 0 87 32q40 38 40 113v420q0 22 -22 22h-174v62h205q61 0 61 -61v-445q0 -106 -63 -161q-53 -48 -135 -48t-135 48q-63 56 -63 161v28z" />
    <glyph glyph-name="K" unicode="K" horiz-adv-x="590" 
d="M107 619q0 22 -22 22h-43v62h74q61 0 61 -61v-244h84q44 0 59 25l170 280h80l-181 -295q-18 -29 -36 -39v-2q17 -6 34 -40l122 -242q11 -23 51 -23h20v-62h-37q-44 0 -61 9q-19 10 -36 44l-128 257q-12 26 -64 26h-77v-336h-70v619z" />
    <glyph glyph-name="L" unicode="L" horiz-adv-x="530" 
d="M107 619q0 22 -22 22h-43v62h74q61 0 61 -61v-558q0 -22 22 -22h233q22 0 22 22v47h66v-70q0 -61 -61 -61h-291q-61 0 -61 61v558z" />
    <glyph glyph-name="M" unicode="M" horiz-adv-x="845" 
d="M22 62h37q21 0 22 22l49 619h71l186 -409q17 -36 35 -83h2q18 47 34 83l186 409h71l49 -619q1 -22 22 -22h38v-62h-68q-57 0 -61 61l-33 427q-3 38 -3 98h-2q-19 -62 -36 -98l-167 -357h-63l-166 357q-16 35 -37 100h-2q0 -62 -3 -100l-33 -427q-4 -61 -61 -61h-67v62z
" />
    <glyph glyph-name="N" unicode="N" horiz-adv-x="760" 
d="M42 62h43q22 0 22 22v619h64l359 -501q24 -35 57 -92h2q-5 55 -5 92v440q0 61 61 61h74v-62h-43q-22 0 -22 -22v-619h-64l-359 501q-25 34 -58 91h-2q6 -54 6 -91v-440q0 -61 -61 -61h-74v62z" />
    <glyph glyph-name="O" unicode="O" horiz-adv-x="791" 
d="M142 611q104 104 254 104t254 -104t104 -255q0 -154 -104 -261q-105 -107 -254 -107q-150 0 -254 107t-104 261q0 151 104 255zM194 141q83 -87 202 -87q118 0 201 87q84 88 84 215q0 124 -84 209q-82 84 -201 84t-202 -84q-83 -85 -83 -209q0 -127 83 -215z" />
    <glyph glyph-name="P" unicode="P" horiz-adv-x="579" 
d="M107 641h-65v62h297q95 0 155 -57q62 -59 62 -155q0 -97 -62 -157q-60 -58 -155 -58h-162v-276h-70v641zM330 338q70 0 112 41t42 112q0 70 -42 111q-41 39 -111 39h-154v-303h153z" />
    <glyph glyph-name="Q" unicode="Q" horiz-adv-x="791" 
d="M141 611q104 104 253 104q152 0 256 -104t104 -255q0 -138 -88 -242l86 -86l-43 -45l-86 87q-96 -82 -229 -82q-149 0 -253 107q-103 107 -103 261q0 151 103 255zM193 142q82 -88 201 -88q111 0 180 64l-84 85l43 45l83 -86q65 83 65 194q0 124 -83 208q-82 84 -204 84
q-120 0 -201 -84q-82 -84 -82 -208q0 -127 82 -214z" />
    <glyph glyph-name="R" unicode="R" horiz-adv-x="605" 
d="M107 641h-65v62h298q89 0 145 -54q57 -55 57 -146q0 -77 -42 -129q-38 -47 -94 -59v-2q14 -8 24 -28l101 -200q11 -23 50 -23h14v-62h-31q-44 0 -61 9q-19 10 -36 44l-101 201q-14 27 -28 35q-13 7 -43 7h-118v-296h-70v641zM333 358q63 0 100 39q36 38 36 104
q0 65 -36 103q-37 37 -99 37h-157v-283h156z" />
    <glyph glyph-name="S" unicode="S" horiz-adv-x="518" 
d="M80 139q71 -86 182 -86q59 0 98 34q41 36 41 91q0 58 -54 99q-28 21 -119 63q-84 39 -120 72q-54 50 -54 123q0 75 59 127q61 53 156 53q66 0 121 -26q69 -33 69 -95v-50h-66v33q0 31 -37 52q-36 21 -86 21q-66 0 -106 -34q-38 -32 -38 -79q0 -54 54 -92q24 -16 120 -60
q82 -37 119 -73q54 -52 54 -130q0 -82 -57 -136q-60 -58 -156 -58q-144 0 -223 100z" />
    <glyph glyph-name="T" unicode="T" horiz-adv-x="620" 
d="M275 641h-174q-22 0 -22 -22v-47h-64v74q0 32 12 45q13 12 45 12h476q32 0 45 -12q12 -13 12 -45v-74h-65v47q0 22 -22 22h-173v-641h-70v641z" />
    <glyph glyph-name="U" unicode="U" horiz-adv-x="717" 
d="M99 619q0 22 -22 22h-43v62h74q61 0 61 -61v-398q0 -87 51 -139q52 -51 138 -51q87 0 138 51q52 52 52 141v396q0 61 61 61h74v-62h-43q-22 0 -22 -22v-378q0 -114 -71 -183q-72 -70 -188 -70t-188 70q-72 69 -72 183v378z" />
    <glyph glyph-name="V" unicode="V" horiz-adv-x="653" 
d="M58 619q-8 22 -36 22h-10v62h31q38 0 53 -11q16 -11 29 -47l173 -473q13 -36 27 -91h2q14 55 27 91l173 473q13 36 30 47q15 11 53 11h30v-62h-9q-28 0 -36 -22l-231 -619h-75z" />
    <glyph glyph-name="W" unicode="W" horiz-adv-x="945" 
d="M66 619q-6 22 -37 22h-12v62h31q40 0 57 -11q19 -12 28 -47l122 -485q9 -36 15 -75h2q9 39 19 75l155 540h69l141 -540q10 -36 16 -75h2q7 39 16 75l122 485q9 35 28 47q17 11 57 11h31v-62h-11q-31 0 -37 -22l-162 -619h-83l-131 489q-12 45 -23 104h-2
q-12 -58 -25 -103l-144 -490h-83z" />
    <glyph glyph-name="X" unicode="X" horiz-adv-x="570" 
d="M239 367l-152 248q-16 26 -50 26h-21v62h37q64 0 97 -56l90 -151q21 -36 45 -80h2q21 44 43 80l90 151q33 56 97 56h37v-62h-21q-34 0 -50 -26l-153 -248l225 -367h-80l-146 242l-45 77h-2q-20 -42 -42 -78l-145 -241h-80z" />
    <glyph glyph-name="Y" unicode="Y" horiz-adv-x="592" 
d="M261 306l-188 309q-16 26 -47 26h-16v62h27q37 0 55 -10q19 -10 41 -46l119 -199q22 -37 43 -79h2q21 42 43 79l119 199q22 36 41 46q18 10 55 10h27v-62h-16q-31 0 -46 -26l-189 -309v-306h-70v306z" />
    <glyph glyph-name="Z" unicode="Z" horiz-adv-x="575" 
d="M19 49l377 528q26 37 51 64v2q-17 -2 -51 -2h-280q-22 0 -22 -22v-47h-65v70q0 61 61 61h443v-49l-376 -528q-26 -37 -52 -64v-2q17 2 52 2h303q22 0 22 22v47h65v-70q0 -61 -61 -61h-467v49z" />
    <glyph glyph-name="bracketleft" unicode="[" horiz-adv-x="303" 
d="M101 669q0 61 61 61h74v-56h-50q-22 0 -22 -22v-669q0 -22 22 -22h50v-56h-74q-61 0 -61 61v703z" />
    <glyph glyph-name="backslash" unicode="\" horiz-adv-x="317" 
d="M5 742h64l253 -784h-63z" />
    <glyph glyph-name="bracketright" unicode="]" horiz-adv-x="303" 
d="M117 -39q22 0 22 22v669q0 22 -22 22h-50v56h74q61 0 61 -61v-703q0 -61 -61 -61h-74v56h50z" />
    <glyph glyph-name="asciicircum" unicode="^" 
d="M271 703h47l198 -453h-65l-156 370l-156 -370h-66z" />
    <glyph glyph-name="underscore" unicode="_" horiz-adv-x="526" 
d="M521 0v-58h-516v58h516z" />
    <glyph glyph-name="grave" unicode="`" horiz-adv-x="360" 
d="M93 871h76l70 -119h-59z" />
    <glyph glyph-name="a" unicode="a" horiz-adv-x="529" 
d="M348 310h28v6q0 78 -30 110t-100 32q-98 0 -98 -44v-32h-65v48q0 46 66 69q46 16 98 16q111 0 158 -56q39 -46 39 -137v-241q0 -22 22 -22h42v-59h-69q-60 0 -60 60q0 22 1 37h-2q2 0 -8 -17q-11 -20 -28 -37q-52 -55 -131 -55q-69 0 -117 37q-54 41 -54 112
q0 173 308 173zM138 76q31 -30 84 -30q68 0 113 61q41 55 41 126v23h-29q-97 0 -148 -15q-89 -26 -89 -100q0 -38 28 -65z" />
    <glyph glyph-name="b" unicode="b" horiz-adv-x="584" 
d="M84 622q0 22 -22 22h-42v59h71q61 0 61 -61v-182q0 -23 -2 -41h2q11 24 37 48q53 48 134 48q100 0 160 -73q59 -73 59 -191t-64 -191q-63 -72 -163 -72q-75 0 -127 49q-27 24 -38 48h-2q2 -17 2 -41v-44h-66v622zM190 111q44 -63 120 -63q69 0 114 54q48 56 48 149
q0 91 -45 147q-44 55 -114 55q-69 0 -113 -48q-50 -54 -50 -155q0 -82 40 -139z" />
    <glyph glyph-name="c" unicode="c" horiz-adv-x="528" 
d="M116 441q76 74 189 74q59 0 111 -22q68 -30 68 -85v-45h-64v29q0 29 -42 47q-35 15 -73 15q-83 0 -138 -56q-57 -57 -57 -147t59 -147q56 -54 138 -54q103 0 162 71l32 -51q-68 -82 -197 -82q-114 0 -188 73q-76 74 -76 190q0 115 76 190z" />
    <glyph glyph-name="d" unicode="d" horiz-adv-x="588" 
d="M106 443q62 72 162 72q76 0 128 -47q26 -23 36 -47h2q-2 17 -2 38v163q0 22 -22 22h-42v59h71q61 0 61 -61v-561q0 -22 22 -22h42v-59h-70q-60 0 -60 56q0 19 2 32h-2q-10 -25 -37 -50q-53 -50 -136 -50q-100 0 -160 74q-59 72 -59 190t64 191zM384 97q50 54 50 155
q0 83 -39 139q-45 63 -121 63q-69 0 -114 -53q-48 -57 -48 -149t44 -148q44 -55 115 -55q69 0 113 48z" />
    <glyph glyph-name="e" unicode="e" horiz-adv-x="548" 
d="M113 445q70 70 175 70q100 0 158 -69q53 -64 53 -163q0 -12 -2 -34h-386q1 -92 59 -148q55 -52 136 -52q92 0 151 62l33 -51q-73 -72 -187 -72q-113 0 -187 73q-76 75 -76 190q0 120 73 194zM429 303q-3 75 -45 117q-38 38 -97 38q-65 0 -111 -40q-50 -42 -62 -115h315z
" />
    <glyph glyph-name="f" unicode="f" horiz-adv-x="305" 
d="M88 446h-63v57h63v18q0 109 66 156q43 31 107 31q19 0 31 -2v-61q-9 2 -24 2q-112 0 -112 -126v-18h128v-57h-128v-446h-68v446z" />
    <glyph glyph-name="g" unicode="g" horiz-adv-x="579" 
d="M100 445q60 70 160 70q84 0 134 -43q25 -21 33 -43h2v19q0 55 57 55h70v-59h-41q-22 0 -22 -22v-410q0 -112 -74 -171q-65 -51 -168 -51q-86 0 -164 40l26 57q62 -35 136 -35q79 0 125 37q51 41 51 121v44q0 19 1 36h-2q-47 -87 -158 -87q-101 0 -163 72q-61 72 -61 186
t58 184zM426 261q0 192 -159 192q-73 0 -114 -50q-41 -51 -41 -141t45 -144t119 -54q150 0 150 197z" />
    <glyph glyph-name="h" unicode="h" horiz-adv-x="605" 
d="M84 622q0 22 -22 22h-42v59h71q61 0 61 -59v-213q0 -23 -2 -41h2q18 45 64 81q59 44 135 44q169 0 169 -195v-239q0 -22 22 -22h42v-59h-71q-61 0 -61 61v241q0 71 -18 104q-25 45 -92 45q-64 0 -114 -40q-51 -40 -68 -103q-8 -27 -8 -67v-241h-68v622z" />
    <glyph glyph-name="i" unicode="i" horiz-adv-x="251" 
d="M90 703h66v-86h-66v86zM92 422q0 22 -22 22h-42v59h71q61 0 61 -61v-361q0 -22 22 -22h42v-59h-71q-61 0 -61 61v361z" />
    <glyph glyph-name="j" unicode="j" horiz-adv-x="268" 
d="M114 703h65v-86h-65v86zM-21 -144q9 -1 22 -1q114 0 114 129v438q0 22 -22 22h-42v59h71q61 0 61 -61v-461q0 -109 -66 -156q-44 -31 -109 -31q-18 0 -29 3v59z" />
    <glyph glyph-name="k" unicode="k" horiz-adv-x="498" 
d="M84 622q0 22 -22 22h-42v59h71q61 0 61 -58v-334h52q38 0 57 24l129 168h83l-145 -184q-25 -31 -38 -36v-2q15 -7 31 -37l91 -163q12 -22 46 -22h27v-59h-47q-38 0 -54 9q-16 10 -33 41l-100 180q-12 22 -53 22h-46v-252h-68v622z" />
    <glyph glyph-name="l" unicode="l" horiz-adv-x="245" 
d="M86 622q0 22 -22 22h-42v59h71q61 0 61 -61v-561q0 -22 22 -22h42v-59h-71q-61 0 -61 61v561z" />
    <glyph glyph-name="m" unicode="m" horiz-adv-x="931" 
d="M87 422q0 22 -22 22h-42v59h70q61 0 61 -56v-23q0 -20 -2 -36h2q19 52 71 89q53 38 111 38q133 0 156 -126h2q21 53 71 89q52 37 114 37q167 0 167 -195v-239q0 -22 22 -22h42v-59h-71q-61 0 -61 61v242q0 71 -20 106q-26 44 -89 44q-55 0 -100 -43q-43 -41 -59 -99
q-9 -28 -9 -73v-238h-68v303q0 70 -17 104q-25 46 -89 46q-59 0 -105 -45q-42 -41 -59 -103q-8 -28 -8 -67v-238h-68v422z" />
    <glyph glyph-name="n" unicode="n" horiz-adv-x="608" 
d="M87 422q0 22 -22 22h-42v59h70q61 0 61 -56v-23q0 -20 -2 -36h2q18 46 63 81q58 46 137 46q169 0 169 -195v-239q0 -22 22 -22h42v-59h-71q-61 0 -61 61v241q0 71 -18 104q-25 45 -91 45q-64 0 -115 -40q-51 -39 -68 -102q-8 -28 -8 -68v-241h-68v422z" />
    <glyph glyph-name="o" unicode="o" horiz-adv-x="611" 
d="M118 440q77 75 187 75q111 0 188 -75q78 -75 78 -186q0 -113 -78 -190q-77 -76 -187 -76q-111 0 -188 76q-78 77 -78 190q0 111 78 186zM168 108q56 -59 138 -59q81 0 138 59t57 146q0 85 -57 142t-138 57q-82 0 -138 -57q-58 -57 -58 -142q0 -87 58 -146z" />
    <glyph glyph-name="p" unicode="p" horiz-adv-x="587" 
d="M87 422q0 22 -22 22h-42v59h69q60 0 60 -53q0 -20 -1 -34h2q10 25 37 50q53 49 136 49q100 0 160 -73q59 -73 59 -191t-64 -191q-62 -72 -161 -72q-77 0 -129 48q-25 23 -36 47h-2q2 -18 2 -44v-239h-68v622zM194 111q44 -63 119 -63q69 0 114 54q48 56 48 149
q0 92 -44 147t-115 55q-69 0 -113 -48q-50 -54 -50 -155q0 -82 41 -139z" />
    <glyph glyph-name="q" unicode="q" horiz-adv-x="588" 
d="M107 443q62 72 162 72q77 0 129 -48q26 -25 37 -49h2q-1 14 -1 33q0 52 60 52h69v-59h-42q-22 0 -22 -22v-622h-68v241q0 26 2 44h-2q-10 -24 -37 -48q-53 -49 -134 -49q-100 0 -160 74q-59 72 -59 190t64 191zM385 97q50 54 50 155q0 83 -40 139q-44 63 -120 63
q-69 0 -115 -53q-48 -57 -48 -149t45 -148q44 -55 115 -55q69 0 113 48z" />
    <glyph glyph-name="r" unicode="r" horiz-adv-x="362" 
d="M87 422q0 22 -22 22h-42v59h70q61 0 61 -57v-34q0 -21 -2 -38h2q42 134 159 134q14 0 27 -3v-67q-12 2 -25 2q-107 0 -146 -130q-14 -45 -14 -98v-212h-68v422z" />
    <glyph glyph-name="s" unicode="s" horiz-adv-x="440" 
d="M68 123q56 -76 155 -76q45 0 74 20q32 22 32 60q0 36 -44 63q-18 11 -97 44q-141 58 -141 145q0 66 52 102q48 34 127 34q52 0 96 -19q57 -25 57 -72v-43h-64v24q0 25 -31 39q-25 12 -56 12q-112 0 -112 -73q0 -37 44 -64q18 -11 97 -43q141 -57 141 -147q0 -62 -50 -102
q-50 -39 -126 -39q-131 0 -193 88z" />
    <glyph glyph-name="t" unicode="t" horiz-adv-x="335" 
d="M93 446h-66v57h67v139h67v-139h126v-57h-126v-256q0 -133 113 -133q14 0 23 2v-61q-12 -2 -29 -2q-175 0 -175 187v263z" />
    <glyph glyph-name="u" unicode="u" horiz-adv-x="603" 
d="M85 422q0 22 -22 22h-42v59h71q61 0 61 -59v-243q0 -71 19 -104q25 -45 91 -45q82 0 135 64q50 61 50 146v241h68v-422q0 -22 22 -22h42v-59h-69q-61 0 -61 56v23q0 20 2 36h-2q-19 -46 -64 -82q-58 -45 -132 -45q-169 0 -169 195v239z" />
    <glyph glyph-name="v" unicode="v" horiz-adv-x="518" 
d="M58 421q-9 23 -35 23h-9v59h27q36 0 52 -11q15 -10 28 -44l121 -314q9 -25 17 -59h2q8 34 17 59l121 314q13 34 28 44q16 11 51 11h26v-59h-9q-27 0 -35 -23l-164 -421h-74z" />
    <glyph glyph-name="w" unicode="w" horiz-adv-x="834" 
d="M58 421q-8 23 -35 23h-13v59h35q37 0 52 -10q16 -11 27 -46l103 -319q8 -24 15 -54h2q8 30 16 54l123 373h68l123 -373q8 -24 16 -54h2q6 29 14 54l104 319q11 35 27 46q15 10 52 10h35v-59h-14q-27 0 -35 -23l-144 -421h-75l-123 358q-8 25 -15 54h-2q-7 -29 -16 -54
l-122 -358h-76z" />
    <glyph glyph-name="x" unicode="x" horiz-adv-x="477" 
d="M194 262l-109 161q-15 21 -46 21h-21v59h37q38 0 55 -10q16 -10 39 -45l72 -112q8 -13 17 -30h2l16 30l73 112q23 35 39 45q17 10 55 10h36v-59h-20q-34 0 -47 -20l-109 -162l176 -262h-80l-123 187q-8 13 -16 28h-2q-8 -14 -17 -28l-123 -187h-79z" />
    <glyph glyph-name="y" unicode="y" horiz-adv-x="539" 
d="M40 -111q0 -4 21 -19q27 -19 54 -19q59 0 93 82l30 69l-177 419q-10 23 -35 23h-10v59h31q34 0 49 -11q15 -10 28 -44l129 -314q10 -25 18 -54h2q7 29 17 54l124 314q13 34 28 44q15 11 50 11h31v-59h-10q-26 0 -35 -23l-217 -526q-43 -105 -144 -105q-70 0 -109 49z" />
    <glyph glyph-name="z" unicode="z" horiz-adv-x="499" 
d="M39 44l283 353q19 24 40 46v2q-17 -2 -50 -2h-184q-22 0 -22 -22v-39h-64v60q0 61 61 61h349v-45l-282 -352q-20 -24 -42 -46v-2q18 2 51 2h208q22 0 22 22v39h64v-60q0 -61 -61 -61h-373v44z" />
    <glyph glyph-name="braceleft" unicode="{" horiz-adv-x="326" 
d="M118 178q0 65 -42 96q-22 16 -43 18v62q21 3 43 18q42 31 42 97v82q0 107 60 151q36 28 89 28h15v-56h-9q-92 0 -92 -125v-98q0 -61 -40 -100q-20 -20 -40 -27v-2q20 -6 40 -25q40 -38 40 -102v-110q0 -125 92 -125h9v-56q-6 -1 -15 -1q-53 0 -89 28q-60 44 -60 152v95z
" />
    <glyph glyph-name="bar" unicode="|" horiz-adv-x="285" 
d="M111 788h63v-945h-63v945z" />
    <glyph glyph-name="braceright" unicode="}" horiz-adv-x="326" 
d="M44 -40h10q91 0 91 125v110q0 64 40 102q20 19 40 25v2q-80 29 -80 127v98q0 125 -91 125h-10v56h16q52 0 89 -28q59 -44 59 -151v-82q0 -66 43 -97q21 -15 42 -18v-62q-21 -2 -42 -18q-43 -31 -43 -96v-95q0 -107 -59 -152q-37 -28 -89 -28q-10 0 -16 1v56z" />
    <glyph glyph-name="asciitilde" unicode="~" 
d="M67 209q0 155 127 155q58 0 109 -52t90 -52q71 0 71 100h59q0 -155 -127 -155q-58 0 -109 52t-90 52q-71 0 -71 -100h-59z" />
    <glyph glyph-name="exclamdown" unicode="&#xa1;" horiz-adv-x="297" 
d="M109 503h77v-77h-77v77zM116 319h64l3 -519h-70z" />
    <glyph glyph-name="cent" unicode="&#xa2;" horiz-adv-x="545" 
d="M256 72q-95 11 -150 91q-51 76 -51 189t51 188q55 80 150 91v111h57v-111q121 -14 179 -148l-64 -24q-46 108 -140 108q-79 0 -122 -62q-40 -58 -40 -153q0 -96 39 -153q43 -62 123 -62q94 0 140 108l64 -25q-61 -137 -179 -148v-111h-57v111z" />
    <glyph glyph-name="sterling" unicode="&#xa3;" horiz-adv-x="582" 
d="M54 62h63v264h-45v55h45v149q0 79 58 132q59 53 148 53q95 0 157 -57l-43 -50q-48 42 -114 42q-63 0 -101 -37q-35 -34 -35 -87v-145h191v-55h-191v-264h263q22 0 22 22v47h65v-70q0 -61 -61 -61h-422v62z" />
    <glyph glyph-name="yen" unicode="&#xa5;" horiz-adv-x="607" 
d="M107 265h162v41l-29 46h-137v51h105v2l-131 214q-13 22 -48 22h-12v62h24q65 0 99 -56l119 -199q22 -37 43 -78h2q21 41 43 78l120 199q33 56 99 56h23v-62h-12q-35 0 -48 -22l-130 -214v-2h100v-51h-133l-27 -46v-41h160v-52h-160v-213h-70v213h-162v52z" />
    <glyph glyph-name="section" unicode="&#xa7;" horiz-adv-x="415" 
d="M77 519q-4 16 -4 35q0 70 47 115q48 46 125 46q69 0 116 -42l-35 -47q-34 29 -81 29t-78 -28q-32 -29 -32 -79q0 -16 4 -31l66 -432h-60zM95 28q35 -30 82 -30t77 29q32 30 32 80q0 17 -4 32l-65 429h60l68 -434q4 -26 4 -35q0 -70 -47 -115q-49 -46 -126 -46
q-69 0 -116 42z" />
    <glyph glyph-name="dieresis" unicode="&#xa8;" horiz-adv-x="493" 
d="M307 871h59v-86h-59v86zM157 871h59v-86h-59v86z" />
    <glyph glyph-name="copyright" unicode="&#xa9;" horiz-adv-x="793" 
d="M144 609q104 106 250 106q149 0 254 -106q104 -106 104 -257q0 -153 -104 -258q-104 -106 -254 -106q-147 0 -250 106t-103 258q0 151 103 257zM185 131q85 -89 209 -89q127 0 214 89q86 90 86 221q0 130 -86 219q-87 90 -214 90q-124 0 -209 -90q-85 -89 -85 -219
q0 -131 85 -221zM252 492q58 64 152 64q110 0 163 -93l-46 -31q-41 69 -115 69q-69 0 -111 -46q-38 -42 -38 -104t38 -104q41 -46 111 -46q75 0 115 69l46 -31q-54 -93 -163 -93q-95 0 -152 63q-54 58 -54 141q0 84 54 142z" />
    <glyph glyph-name="ordfeminine" unicode="&#xaa;" horiz-adv-x="414" 
d="M94 407q-34 27 -34 71q0 110 190 110h13q-1 42 -17 60q-16 17 -54 17q-52 0 -52 -20v-24h-53v39q0 29 43 43q29 10 63 10q125 0 125 -123v-142q0 -9 9 -9h29v-51h-47q-41 0 -42 39v12h-2q-26 -57 -95 -57q-45 0 -76 25zM240 465q22 32 24 79h-12q-135 0 -135 -63
q0 -51 60 -51q39 0 63 35zM58 311h303v-47h-303v47z" />
    <glyph glyph-name="guillemotleft" unicode="&#xab;" horiz-adv-x="522" 
d="M381 488h74l-164 -206l164 -205h-74l-164 205zM38 282l164 206h73l-164 -206l164 -205h-73z" />
    <glyph glyph-name="logicalnot" unicode="&#xac;" 
d="M70 400h466v-242h-61v184h-405v58z" />
    <glyph glyph-name="registered" unicode="&#xae;" horiz-adv-x="793" 
d="M144 609q104 106 250 106q149 0 254 -106q104 -106 104 -257q0 -153 -104 -258q-104 -106 -254 -106q-147 0 -250 106t-103 258q0 151 103 257zM185 131q85 -89 209 -89q127 0 214 89q86 90 86 221q0 130 -86 219q-87 90 -214 90q-124 0 -209 -90q-85 -89 -85 -219
q0 -131 85 -221zM276 500h-36v47h175q52 0 84 -32q33 -32 33 -84q0 -85 -73 -103v-2q11 -4 20 -21l45 -90q7 -13 27 -13h10v-45h-29q-40 0 -56 30l-54 106q-12 22 -36 22h-54v-158h-56v343zM405 359q69 0 69 72q0 69 -69 69h-73v-141h73z" />
    <glyph glyph-name="macron" unicode="&#xaf;" horiz-adv-x="461" 
d="M112 839h246v-54h-246v54z" />
    <glyph glyph-name="macron" unicode="&#x2c9;" horiz-adv-x="461" 
d="M112 839h246v-54h-246v54z" />
    <glyph glyph-name="degree" unicode="&#xb0;" horiz-adv-x="383" 
d="M92 477q-41 40 -41 98q0 57 41 98t99 41t100 -41q41 -41 41 -98q0 -58 -41 -98q-41 -41 -100 -41q-58 0 -99 41zM249 516q24 24 24 59q0 34 -24 58q-24 25 -58 25t-57 -25q-23 -24 -23 -58q0 -35 23 -59t57 -24t58 24z" />
    <glyph glyph-name="plusminus" unicode="&#xb1;" 
d="M42 313h231v255h61v-255h230v-58h-230v-255h-61v255h-231v58zM546 -104v-58h-486v58h486z" />
    <glyph glyph-name="uni00B2" unicode="&#xb2;" horiz-adv-x="409" 
d="M96 265q-45 0 -45 50q0 58 40 99q24 24 86 60q98 55 98 111q0 31 -21 51q-22 21 -58 21q-28 0 -48 -12t-20 -28v-26h-54v39q0 39 45 62q36 19 77 19q64 0 101 -36q36 -35 36 -90q0 -56 -41 -96q-23 -22 -87 -58q-97 -57 -97 -108q0 -6 9 -6h175q6 0 6 7v35h54v-50
q0 -44 -44 -44h-212z" />
    <glyph glyph-name="uni00B3" unicode="&#xb3;" horiz-adv-x="409" 
d="M50 329l40 39q45 -57 109 -57q35 0 61 24q27 25 27 62t-29 60q-26 21 -65 21h-35l-10 34l96 117q10 12 23 24v2q-17 -3 -36 -3h-95q-10 0 -10 -11v-28h-54v43q0 26 10 37q10 10 37 10h221v-39l-118 -138q47 -4 82 -36q41 -37 41 -94q0 -60 -44 -100q-43 -39 -103 -39
q-88 0 -148 72z" />
    <glyph glyph-name="acute" unicode="&#xb4;" horiz-adv-x="371" 
d="M185 871h76l-87 -119h-59z" />
    <glyph glyph-name="uni00B5" unicode="&#xb5;" horiz-adv-x="603" 
d="M21 503h71q61 0 61 -59v-243q0 -71 19 -104q25 -45 91 -45q82 0 135 64q50 61 50 146v241h68v-422q0 -22 22 -22h42v-59h-69q-61 0 -61 56v23q0 20 2 36h-3q-12 -32 -43 -63q-61 -64 -152 -64q-84 0 -111 42h-2q7 -51 7 -76v-154h-63v622q0 22 -22 22h-42v59z" />
    <glyph glyph-name="uni00B5" unicode="&#x3bc;" horiz-adv-x="603" 
d="M21 503h71q61 0 61 -59v-243q0 -71 19 -104q25 -45 91 -45q82 0 135 64q50 61 50 146v241h68v-422q0 -22 22 -22h42v-59h-69q-61 0 -61 56v23q0 20 2 36h-3q-12 -32 -43 -63q-61 -64 -152 -64q-84 0 -111 42h-2q7 -51 7 -76v-154h-63v622q0 22 -22 22h-42v59z" />
    <glyph glyph-name="paragraph" unicode="&#xb6;" horiz-adv-x="574" 
d="M282 241q-98 0 -168 67q-71 68 -71 165t71 164q69 66 167 66h239v-62h-181v-691h-57v291zM401 581h58v-631h-58v631z" />
    <glyph glyph-name="periodcentered" unicode="&#xb7;" horiz-adv-x="215" 
d="M69 328h77v-80h-77v80z" />
    <glyph glyph-name="periodcentered" unicode="&#x2219;" horiz-adv-x="215" 
d="M69 328h77v-80h-77v80z" />
    <glyph glyph-name="cedilla" unicode="&#xb8;" horiz-adv-x="413" 
d="M198 13v-8l-12 -60q71 -10 71 -71q0 -79 -97 -79q-29 0 -49 5v48q19 -6 42 -6q51 0 51 34t-57 34q-8 0 -15 -1l26 111z" />
    <glyph glyph-name="uni00B9" unicode="&#xb9;" horiz-adv-x="409" 
d="M80 317h94v275q0 22 1 34h-2q-5 -10 -13 -18l-45 -44l-36 37l102 102h51v-386h93v-52h-245v52z" />
    <glyph glyph-name="ordmasculine" unicode="&#xba;" horiz-adv-x="456" 
d="M110 431q-49 48 -49 119q0 69 49 117q49 47 118 47t118 -47q49 -48 49 -117q0 -71 -49 -119q-48 -48 -118 -48t-118 48zM307 467q33 33 33 83q0 49 -33 82q-32 32 -79 32t-79 -32q-33 -33 -33 -82q0 -50 33 -83q32 -33 79 -33t79 33zM78 311h303v-47h-303v47z" />
    <glyph glyph-name="guillemotright" unicode="&#xbb;" horiz-adv-x="522" 
d="M410 282l-164 206h74l164 -206l-164 -205h-74zM230 282l-164 206h74l164 -206l-164 -205h-74z" />
    <glyph glyph-name="onequarter" unicode="&#xbc;" horiz-adv-x="890" 
d="M566 703h62l-296 -703h-63zM78 317h94v275q0 22 1 34h-2q-5 -10 -13 -18l-45 -44l-36 37l102 102h50v-386h92v-52h-243v52zM496 154l208 284h60v-269h67v-52h-67v-117h-57v117h-211v37zM564 168l21 1h123v153q0 20 1 39h-2q-7 -14 -16 -27z" />
    <glyph glyph-name="onehalf" unicode="&#xbd;" horiz-adv-x="890" 
d="M555 703h62l-296 -703h-63zM78 317h94v275q0 22 1 34h-2q-5 -10 -13 -18l-45 -44l-36 37l102 102h50v-386h92v-52h-243v52zM559 149q25 26 86 60q98 55 98 111q0 31 -21 51q-22 21 -58 21q-28 0 -48 -12t-20 -28v-25h-54v38q0 40 45 63q36 18 77 18q64 0 101 -36
q36 -35 36 -90t-41 -95q-24 -23 -87 -59q-96 -57 -96 -107q0 -7 8 -7h175q6 0 6 7v35h54v-50q0 -44 -44 -44h-212q-45 0 -45 50q0 58 40 99z" />
    <glyph glyph-name="threequarters" unicode="&#xbe;" horiz-adv-x="890" 
d="M565 703h62l-296 -703h-63zM62 329l40 39q45 -57 109 -57q35 0 61 24q27 25 27 62t-29 60q-26 21 -65 21h-35l-10 34l96 117q10 12 23 24v2q-17 -3 -36 -3h-95q-10 0 -10 -11v-28h-54v43q0 26 10 37q10 10 37 10h221v-39l-118 -138q47 -4 82 -36q41 -37 41 -94
q0 -60 -44 -100q-43 -39 -103 -39q-88 0 -148 72zM496 154l208 284h60v-269h67v-52h-67v-117h-57v117h-211v37zM564 168l21 1h123v153q0 20 1 39h-2q-7 -14 -16 -27z" />
    <glyph glyph-name="questiondown" unicode="&#xbf;" horiz-adv-x="431" 
d="M205 503h77v-77h-77v77zM121 135q89 82 89 144v40h67v-43q0 -83 -87 -165t-87 -141q0 -49 37 -81q37 -34 94 -34q68 0 121 42l37 -50q-62 -57 -161 -57q-86 0 -143 50t-57 127q0 87 90 168z" />
    <glyph glyph-name="Agrave" unicode="&#xc0;" horiz-adv-x="657" 
d="M12 62h13q28 0 36 22l230 619h75l230 -619q8 -22 36 -22h12v-62h-32q-38 0 -53 11q-17 11 -30 47l-61 166h-279l-62 -166q-14 -36 -29 -47q-16 -11 -53 -11h-33v62zM449 285l-93 251q-12 33 -27 91h-2q-15 -58 -27 -91l-92 -251h241zM212 871h76l70 -119h-59z" />
    <glyph glyph-name="Aacute" unicode="&#xc1;" horiz-adv-x="657" 
d="M12 62h13q28 0 36 22l230 619h75l230 -619q8 -22 36 -22h12v-62h-32q-38 0 -53 11q-17 11 -30 47l-61 166h-279l-62 -166q-14 -36 -29 -47q-16 -11 -53 -11h-33v62zM449 285l-93 251q-12 33 -27 91h-2q-15 -58 -27 -91l-92 -251h241zM369 871h76l-87 -119h-59z" />
    <glyph glyph-name="Acircumflex" unicode="&#xc2;" horiz-adv-x="657" 
d="M12 62h13q28 0 36 22l230 619h75l230 -619q8 -22 36 -22h12v-62h-32q-38 0 -53 11q-17 11 -30 47l-61 166h-279l-62 -166q-14 -36 -29 -47q-16 -11 -53 -11h-33v62zM449 285l-93 251q-12 33 -27 91h-2q-15 -58 -27 -91l-92 -251h241zM294 871h70l83 -119h-63l-54 81h-2
l-54 -81h-63z" />
    <glyph glyph-name="Atilde" unicode="&#xc3;" horiz-adv-x="657" 
d="M12 62h13q28 0 36 22l230 619h75l230 -619q8 -22 36 -22h12v-62h-32q-38 0 -53 11q-17 11 -30 47l-61 166h-279l-62 -166q-14 -36 -29 -47q-16 -11 -53 -11h-33v62zM449 285l-93 251q-12 33 -27 91h-2q-15 -58 -27 -91l-92 -251h241zM171 755q0 117 93 117q36 0 71 -36
t55 -36q40 0 40 69h53q0 -117 -93 -117q-37 0 -72 36q-35 35 -55 35q-40 0 -40 -68h-52z" />
    <glyph glyph-name="Adieresis" unicode="&#xc4;" horiz-adv-x="657" 
d="M12 62h13q28 0 36 22l230 619h75l230 -619q8 -22 36 -22h12v-62h-32q-38 0 -53 11q-17 11 -30 47l-61 166h-279l-62 -166q-14 -36 -29 -47q-16 -11 -53 -11h-33v62zM449 285l-93 251q-12 33 -27 91h-2q-15 -58 -27 -91l-92 -251h241zM375 871h59v-86h-59v86zM225 871h59
v-86h-59v86z" />
    <glyph glyph-name="Aring" unicode="&#xc5;" horiz-adv-x="657" 
d="M12 62h13q28 0 36 22l230 619h75l230 -619q8 -22 36 -22h12v-62h-32q-38 0 -53 11q-17 11 -30 47l-61 166h-279l-62 -166q-14 -36 -29 -47q-16 -11 -53 -11h-33v62zM449 285l-93 251q-12 33 -27 91h-2q-15 -58 -27 -91l-92 -251h241zM277 761q-22 20 -22 51t22 51
q21 20 52 20t52 -20q22 -20 22 -51t-22 -51q-21 -20 -52 -20t-52 20zM362 812q0 34 -33 34t-33 -34q0 -33 33 -33t33 33z" />
    <glyph glyph-name="AE" unicode="&#xc6;" horiz-adv-x="823" 
d="M12 62h9q28 0 36 22l238 619h414q61 0 61 -61v-70h-66v47q0 22 -22 22h-232v-256h256v-62h-256v-239q0 -22 28 -22h233q22 0 22 22v47h66v-70q0 -61 -61 -61h-288q-39 0 -54 12q-16 13 -16 49v262h-159l-100 -265q-13 -36 -29 -47q-15 -11 -53 -11h-27v62zM380 385v256
h-40l-96 -256h136z" />
    <glyph glyph-name="Ccedilla" unicode="&#xc7;" horiz-adv-x="694" 
d="M137 612q100 103 248 103q92 0 169 -35q94 -42 94 -114v-58h-66v39q0 46 -67 76q-59 26 -128 26q-118 0 -196 -82q-80 -83 -80 -210t78 -214q79 -89 198 -89q145 0 233 98l40 -50q-94 -110 -266 -114l-9 -43q70 -10 70 -71q0 -79 -96 -79q-29 0 -49 5v48q19 -6 42 -6
q50 0 50 34t-57 34q-7 0 -14 -1l19 81q-139 13 -226 117q-86 103 -86 250q0 152 99 255z" />
    <glyph glyph-name="Egrave" unicode="&#xc8;" horiz-adv-x="558" 
d="M107 641h-65v62h402q61 0 61 -61v-70h-66v47q0 22 -22 22h-240v-256h264v-62h-264v-239q0 -22 22 -22h247q22 0 22 22v47h65v-70q0 -61 -61 -61h-304q-61 0 -61 61v580zM177 871h76l70 -119h-59z" />
    <glyph glyph-name="Eacute" unicode="&#xc9;" horiz-adv-x="558" 
d="M107 641h-65v62h402q61 0 61 -61v-70h-66v47q0 22 -22 22h-240v-256h264v-62h-264v-239q0 -22 22 -22h247q22 0 22 22v47h65v-70q0 -61 -61 -61h-304q-61 0 -61 61v580zM334 871h76l-87 -119h-59z" />
    <glyph glyph-name="Ecircumflex" unicode="&#xca;" horiz-adv-x="558" 
d="M107 641h-65v62h402q61 0 61 -61v-70h-66v47q0 22 -22 22h-240v-256h264v-62h-264v-239q0 -22 22 -22h247q22 0 22 22v47h65v-70q0 -61 -61 -61h-304q-61 0 -61 61v580zM259 871h70l83 -119h-63l-54 81h-2l-54 -81h-63z" />
    <glyph glyph-name="Edieresis" unicode="&#xcb;" horiz-adv-x="558" 
d="M107 641h-65v62h402q61 0 61 -61v-70h-66v47q0 22 -22 22h-240v-256h264v-62h-264v-239q0 -22 22 -22h247q22 0 22 22v47h65v-70q0 -61 -61 -61h-304q-61 0 -61 61v580zM340 871h59v-86h-59v86zM190 871h59v-86h-59v86z" />
    <glyph glyph-name="Igrave" unicode="&#xcc;" horiz-adv-x="293" 
d="M46 62h66v579h-66v62h201v-62h-67v-579h67v-62h-201v62zM29 871h76l70 -119h-59z" />
    <glyph glyph-name="Iacute" unicode="&#xcd;" horiz-adv-x="293" 
d="M46 62h66v579h-66v62h201v-62h-67v-579h67v-62h-201v62zM186 871h76l-87 -119h-59z" />
    <glyph glyph-name="Icircumflex" unicode="&#xce;" horiz-adv-x="293" 
d="M46 62h66v579h-66v62h201v-62h-67v-579h67v-62h-201v62zM111 871h70l83 -119h-63l-54 81h-2l-54 -81h-63z" />
    <glyph glyph-name="Idieresis" unicode="&#xcf;" horiz-adv-x="293" 
d="M46 62h66v579h-66v62h201v-62h-67v-579h67v-62h-201v62zM192 871h59v-86h-59v86zM42 871h59v-86h-59v86z" />
    <glyph glyph-name="Eth" unicode="&#xd0;" horiz-adv-x="715" 
d="M107 323h-50v60h50v258h-65v62h282q161 0 256 -92q97 -95 97 -259q0 -166 -97 -260q-95 -92 -256 -92h-156q-61 0 -61 61v262zM177 84q0 -22 22 -22h118q132 0 208 75q79 76 79 215q0 138 -79 215q-76 74 -208 74h-140v-258h164v-60h-164v-239z" />
    <glyph glyph-name="Ntilde" unicode="&#xd1;" horiz-adv-x="760" 
d="M42 62h43q22 0 22 22v619h64l359 -501q24 -35 57 -92h2q-5 55 -5 92v440q0 61 61 61h74v-62h-43q-22 0 -22 -22v-619h-64l-359 501q-25 34 -58 91h-2q6 -54 6 -91v-440q0 -61 -61 -61h-74v62zM233 755q0 117 93 117q36 0 71 -36t55 -36q40 0 40 69h53q0 -117 -93 -117
q-37 0 -72 36q-35 35 -55 35q-40 0 -40 -68h-52z" />
    <glyph glyph-name="Ograve" unicode="&#xd2;" horiz-adv-x="791" 
d="M142 611q104 104 254 104t254 -104t104 -255q0 -154 -104 -261q-105 -107 -254 -107q-150 0 -254 107t-104 261q0 151 104 255zM194 141q83 -87 202 -87q118 0 201 87q84 88 84 215q0 124 -84 209q-82 84 -201 84t-202 -84q-83 -85 -83 -209q0 -127 83 -215zM276 871h76
l70 -119h-59z" />
    <glyph glyph-name="Oacute" unicode="&#xd3;" horiz-adv-x="791" 
d="M142 611q104 104 254 104t254 -104t104 -255q0 -154 -104 -261q-105 -107 -254 -107q-150 0 -254 107t-104 261q0 151 104 255zM194 141q83 -87 202 -87q118 0 201 87q84 88 84 215q0 124 -84 209q-82 84 -201 84t-202 -84q-83 -85 -83 -209q0 -127 83 -215zM433 871h76
l-87 -119h-59z" />
    <glyph glyph-name="Ocircumflex" unicode="&#xd4;" horiz-adv-x="791" 
d="M142 611q104 104 254 104t254 -104t104 -255q0 -154 -104 -261q-105 -107 -254 -107q-150 0 -254 107t-104 261q0 151 104 255zM194 141q83 -87 202 -87q118 0 201 87q84 88 84 215q0 124 -84 209q-82 84 -201 84t-202 -84q-83 -85 -83 -209q0 -127 83 -215zM358 871h70
l83 -119h-63l-54 81h-2l-54 -81h-63z" />
    <glyph glyph-name="Otilde" unicode="&#xd5;" horiz-adv-x="791" 
d="M142 611q104 104 254 104t254 -104t104 -255q0 -154 -104 -261q-105 -107 -254 -107q-150 0 -254 107t-104 261q0 151 104 255zM194 141q83 -87 202 -87q118 0 201 87q84 88 84 215q0 124 -84 209q-82 84 -201 84t-202 -84q-83 -85 -83 -209q0 -127 83 -215zM235 755
q0 117 93 117q36 0 71 -36t55 -36q40 0 40 69h53q0 -117 -93 -117q-37 0 -72 36q-35 35 -55 35q-40 0 -40 -68h-52z" />
    <glyph glyph-name="Odieresis" unicode="&#xd6;" horiz-adv-x="791" 
d="M142 611q104 104 254 104t254 -104t104 -255q0 -154 -104 -261q-105 -107 -254 -107q-150 0 -254 107t-104 261q0 151 104 255zM194 141q83 -87 202 -87q118 0 201 87q84 88 84 215q0 124 -84 209q-82 84 -201 84t-202 -84q-83 -85 -83 -209q0 -127 83 -215zM439 871h59
v-86h-59v86zM289 871h59v-86h-59v86z" />
    <glyph glyph-name="multiply" unicode="&#xd7;" 
d="M264 284l-216 243l41 41l214 -241l214 241l41 -41l-217 -243l217 -243l-41 -41l-214 241l-214 -241l-41 41z" />
    <glyph glyph-name="Oslash" unicode="&#xd8;" horiz-adv-x="794" 
d="M165 74q-126 110 -126 282q0 151 104 255t254 104q102 0 189 -54l48 67l41 -30l-47 -66q127 -109 127 -276q0 -154 -104 -261q-105 -107 -254 -107q-105 0 -191 56l-48 -68l-42 29zM547 606q-70 43 -150 43q-119 0 -201 -84q-84 -85 -84 -209q0 -138 95 -225zM246 99
q71 -45 151 -45q119 0 202 87q83 88 83 215q0 133 -96 218z" />
    <glyph glyph-name="Ugrave" unicode="&#xd9;" horiz-adv-x="717" 
d="M99 619q0 22 -22 22h-43v62h74q61 0 61 -61v-398q0 -87 51 -139q52 -51 138 -51q87 0 138 51q52 52 52 141v396q0 61 61 61h74v-62h-43q-22 0 -22 -22v-378q0 -114 -71 -183q-72 -70 -188 -70t-188 70q-72 69 -72 183v378zM243 871h76l70 -119h-59z" />
    <glyph glyph-name="Uacute" unicode="&#xda;" horiz-adv-x="717" 
d="M99 619q0 22 -22 22h-43v62h74q61 0 61 -61v-398q0 -87 51 -139q52 -51 138 -51q87 0 138 51q52 52 52 141v396q0 61 61 61h74v-62h-43q-22 0 -22 -22v-378q0 -114 -71 -183q-72 -70 -188 -70t-188 70q-72 69 -72 183v378zM400 871h76l-87 -119h-59z" />
    <glyph glyph-name="Ucircumflex" unicode="&#xdb;" horiz-adv-x="717" 
d="M99 619q0 22 -22 22h-43v62h74q61 0 61 -61v-398q0 -87 51 -139q52 -51 138 -51q87 0 138 51q52 52 52 141v396q0 61 61 61h74v-62h-43q-22 0 -22 -22v-378q0 -114 -71 -183q-72 -70 -188 -70t-188 70q-72 69 -72 183v378zM325 871h70l83 -119h-63l-54 81h-2l-54 -81h-63
z" />
    <glyph glyph-name="Udieresis" unicode="&#xdc;" horiz-adv-x="717" 
d="M99 619q0 22 -22 22h-43v62h74q61 0 61 -61v-398q0 -87 51 -139q52 -51 138 -51q87 0 138 51q52 52 52 141v396q0 61 61 61h74v-62h-43q-22 0 -22 -22v-378q0 -114 -71 -183q-72 -70 -188 -70t-188 70q-72 69 -72 183v378zM406 871h59v-86h-59v86zM256 871h59v-86h-59v86
z" />
    <glyph glyph-name="Yacute" unicode="&#xdd;" horiz-adv-x="592" 
d="M261 306l-188 309q-16 26 -47 26h-16v62h27q37 0 55 -10q19 -10 41 -46l119 -199q22 -37 43 -79h2q21 42 43 79l119 199q22 36 41 46q18 10 55 10h27v-62h-16q-31 0 -46 -26l-189 -309v-306h-70v306zM337 871h76l-87 -119h-59z" />
    <glyph glyph-name="Thorn" unicode="&#xde;" horiz-adv-x="584" 
d="M107 619q0 22 -22 22h-43v62h74q61 0 61 -61v-64h162q95 0 155 -57q62 -59 62 -156q0 -96 -62 -156q-61 -58 -157 -58h-160v-151h-70v619zM330 213q70 0 112 40q42 41 42 112t-42 112q-41 39 -111 39h-154v-303h153z" />
    <glyph glyph-name="germandbls" unicode="&#xdf;" horiz-adv-x="558" 
d="M20 59h41q22 0 22 22v450q0 85 63 137q57 47 138 47q78 0 128 -45q47 -43 47 -104q0 -54 -55 -109q-56 -55 -56 -80q0 -29 98 -100q97 -71 97 -146q0 -68 -49 -107q-45 -36 -113 -36q-96 0 -155 58l25 53q55 -50 125 -50q42 0 68 20q30 22 30 64q0 48 -98 117
q-98 68 -98 125q0 42 56 97q55 55 55 93q0 35 -27 60q-30 28 -81 28q-52 0 -89 -32q-41 -36 -41 -95v-465q0 -61 -61 -61h-70v59z" />
    <glyph glyph-name="agrave" unicode="&#xe0;" horiz-adv-x="529" 
d="M348 310h28v6q0 78 -30 110t-100 32q-98 0 -98 -44v-32h-65v48q0 46 66 69q46 16 98 16q111 0 158 -56q39 -46 39 -137v-241q0 -22 22 -22h42v-59h-69q-60 0 -60 60q0 22 1 37h-2q2 0 -8 -17q-11 -20 -28 -37q-52 -55 -131 -55q-69 0 -117 37q-54 41 -54 112
q0 173 308 173zM138 76q31 -30 84 -30q68 0 113 61q41 55 41 126v23h-29q-97 0 -148 -15q-89 -26 -89 -100q0 -38 28 -65zM143 703h76l70 -119h-59z" />
    <glyph glyph-name="aacute" unicode="&#xe1;" horiz-adv-x="529" 
d="M348 310h28v6q0 78 -30 110t-100 32q-98 0 -98 -44v-32h-65v48q0 46 66 69q46 16 98 16q111 0 158 -56q39 -46 39 -137v-241q0 -22 22 -22h42v-59h-69q-60 0 -60 60q0 22 1 37h-2q2 0 -8 -17q-11 -20 -28 -37q-52 -55 -131 -55q-69 0 -117 37q-54 41 -54 112
q0 173 308 173zM138 76q31 -30 84 -30q68 0 113 61q41 55 41 126v23h-29q-97 0 -148 -15q-89 -26 -89 -100q0 -38 28 -65zM300 703h76l-87 -119h-59z" />
    <glyph glyph-name="acircumflex" unicode="&#xe2;" horiz-adv-x="529" 
d="M348 310h28v6q0 78 -30 110t-100 32q-98 0 -98 -44v-32h-65v48q0 46 66 69q46 16 98 16q111 0 158 -56q39 -46 39 -137v-241q0 -22 22 -22h42v-59h-69q-60 0 -60 60q0 22 1 37h-2q2 0 -8 -17q-11 -20 -28 -37q-52 -55 -131 -55q-69 0 -117 37q-54 41 -54 112
q0 173 308 173zM138 76q31 -30 84 -30q68 0 113 61q41 55 41 126v23h-29q-97 0 -148 -15q-89 -26 -89 -100q0 -38 28 -65zM225 703h70l83 -119h-63l-54 81h-2l-54 -81h-63z" />
    <glyph glyph-name="atilde" unicode="&#xe3;" horiz-adv-x="529" 
d="M348 310h28v6q0 78 -30 110t-100 32q-98 0 -98 -44v-32h-65v48q0 46 66 69q46 16 98 16q111 0 158 -56q39 -46 39 -137v-241q0 -22 22 -22h42v-59h-69q-60 0 -60 60q0 22 1 37h-2q2 0 -8 -17q-11 -20 -28 -37q-52 -55 -131 -55q-69 0 -117 37q-54 41 -54 112
q0 173 308 173zM138 76q31 -30 84 -30q68 0 113 61q41 55 41 126v23h-29q-97 0 -148 -15q-89 -26 -89 -100q0 -38 28 -65zM102 587q0 117 93 117q36 0 71 -36t55 -36q40 0 40 69h53q0 -117 -93 -117q-37 0 -72 36q-35 35 -55 35q-40 0 -40 -68h-52z" />
    <glyph glyph-name="adieresis" unicode="&#xe4;" horiz-adv-x="529" 
d="M348 310h28v6q0 78 -30 110t-100 32q-98 0 -98 -44v-32h-65v48q0 46 66 69q46 16 98 16q111 0 158 -56q39 -46 39 -137v-241q0 -22 22 -22h42v-59h-69q-60 0 -60 60q0 22 1 37h-2q2 0 -8 -17q-11 -20 -28 -37q-52 -55 -131 -55q-69 0 -117 37q-54 41 -54 112
q0 173 308 173zM138 76q31 -30 84 -30q68 0 113 61q41 55 41 126v23h-29q-97 0 -148 -15q-89 -26 -89 -100q0 -38 28 -65zM306 703h59v-86h-59v86zM156 703h59v-86h-59v86z" />
    <glyph glyph-name="aring" unicode="&#xe5;" horiz-adv-x="529" 
d="M348 310h28v6q0 78 -30 110t-100 32q-98 0 -98 -44v-32h-65v48q0 46 66 69q46 16 98 16q111 0 158 -56q39 -46 39 -137v-241q0 -22 22 -22h42v-59h-69q-60 0 -60 60q0 22 1 37h-2q2 0 -8 -17q-11 -20 -28 -37q-52 -55 -131 -55q-69 0 -117 37q-54 41 -54 112
q0 173 308 173zM138 76q31 -30 84 -30q68 0 113 61q41 55 41 126v23h-29q-97 0 -148 -15q-89 -26 -89 -100q0 -38 28 -65zM208 593q-22 20 -22 51t22 51q21 20 52 20t52 -20q22 -20 22 -51t-22 -51q-21 -20 -52 -20t-52 20zM293 644q0 34 -33 34t-33 -34q0 -33 33 -33t33 33
z" />
    <glyph glyph-name="ae" unicode="&#xe6;" horiz-adv-x="871" 
d="M149 282q65 23 193 23h33v11q0 78 -31 110q-29 32 -98 32q-98 0 -98 -44v-32h-65v48q0 42 56 65q46 20 108 20q141 0 174 -104h2q62 104 190 104q98 0 155 -67q52 -62 52 -152q0 -20 -2 -45h-377q2 -96 56 -150q51 -52 132 -52q91 0 151 62l32 -51q-72 -72 -186 -72
q-161 0 -221 140h-2q-13 -43 -48 -80q-56 -60 -142 -60q-73 0 -121 38q-52 41 -52 111q0 107 109 145zM751 305q-3 74 -45 115q-39 37 -96 37q-64 0 -107 -38q-46 -41 -57 -114h305zM138 75q32 -29 85 -29q68 0 113 61q40 56 40 127v17h-59q-89 0 -135 -16q-72 -26 -72 -94
q0 -39 28 -66z" />
    <glyph glyph-name="ccedilla" unicode="&#xe7;" horiz-adv-x="528" 
d="M116 441q76 74 189 74q59 0 111 -22q68 -30 68 -85v-45h-64v29q0 29 -42 47q-35 15 -73 15q-83 0 -138 -56q-57 -57 -57 -147t59 -147q56 -54 138 -54q103 0 162 71l32 -51q-68 -81 -199 -82l-8 -43q70 -10 70 -71q0 -79 -96 -79q-29 0 -50 5v48q19 -6 42 -6q51 0 51 34
t-57 34q-7 0 -15 -1l19 83q-96 14 -156 84q-62 71 -62 175q0 115 76 190z" />
    <glyph glyph-name="egrave" unicode="&#xe8;" horiz-adv-x="548" 
d="M113 445q70 70 175 70q100 0 158 -69q53 -64 53 -163q0 -12 -2 -34h-386q1 -92 59 -148q55 -52 136 -52q92 0 151 62l33 -51q-73 -72 -187 -72q-113 0 -187 73q-76 75 -76 190q0 120 73 194zM429 303q-3 75 -45 117q-38 38 -97 38q-65 0 -111 -40q-50 -42 -62 -115h315z
M169 703h76l70 -119h-59z" />
    <glyph glyph-name="eacute" unicode="&#xe9;" horiz-adv-x="548" 
d="M113 445q70 70 175 70q100 0 158 -69q53 -64 53 -163q0 -12 -2 -34h-386q1 -92 59 -148q55 -52 136 -52q92 0 151 62l33 -51q-73 -72 -187 -72q-113 0 -187 73q-76 75 -76 190q0 120 73 194zM429 303q-3 75 -45 117q-38 38 -97 38q-65 0 -111 -40q-50 -42 -62 -115h315z
M326 703h76l-87 -119h-59z" />
    <glyph glyph-name="ecircumflex" unicode="&#xea;" horiz-adv-x="548" 
d="M113 445q70 70 175 70q100 0 158 -69q53 -64 53 -163q0 -12 -2 -34h-386q1 -92 59 -148q55 -52 136 -52q92 0 151 62l33 -51q-73 -72 -187 -72q-113 0 -187 73q-76 75 -76 190q0 120 73 194zM429 303q-3 75 -45 117q-38 38 -97 38q-65 0 -111 -40q-50 -42 -62 -115h315z
M251 703h70l83 -119h-63l-54 81h-2l-54 -81h-63z" />
    <glyph glyph-name="edieresis" unicode="&#xeb;" horiz-adv-x="548" 
d="M113 445q70 70 175 70q100 0 158 -69q53 -64 53 -163q0 -12 -2 -34h-386q1 -92 59 -148q55 -52 136 -52q92 0 151 62l33 -51q-73 -72 -187 -72q-113 0 -187 73q-76 75 -76 190q0 120 73 194zM429 303q-3 75 -45 117q-38 38 -97 38q-65 0 -111 -40q-50 -42 -62 -115h315z
M332 703h59v-86h-59v86zM182 703h59v-86h-59v86z" />
    <glyph glyph-name="igrave" unicode="&#xec;" horiz-adv-x="252" 
d="M93 422q0 22 -22 22h-42v59h71q61 0 61 -61v-361q0 -22 22 -22h42v-59h-71q-61 0 -61 61v361zM3 703h76l69 -119h-59z" />
    <glyph glyph-name="iacute" unicode="&#xed;" horiz-adv-x="252" 
d="M93 422q0 22 -22 22h-42v59h71q61 0 61 -61v-361q0 -22 22 -22h42v-59h-71q-61 0 -61 61v361zM159 703h76l-87 -119h-59z" />
    <glyph glyph-name="icircumflex" unicode="&#xee;" horiz-adv-x="252" 
d="M93 422q0 22 -22 22h-42v59h71q61 0 61 -61v-361q0 -22 22 -22h42v-59h-71q-61 0 -61 61v361zM85 703h69l84 -119h-63l-54 81h-2l-55 -81h-63z" />
    <glyph glyph-name="idieresis" unicode="&#xef;" horiz-adv-x="252" 
d="M93 422q0 22 -22 22h-42v59h71q61 0 61 -61v-361q0 -22 22 -22h42v-59h-71q-61 0 -61 61v361zM151 703h59v-86h-59v86zM25 703h60v-86h-60v86z" />
    <glyph glyph-name="eth" unicode="&#xf0;" horiz-adv-x="565" 
d="M98 394q66 73 178 73q96 0 144 -54h2q-34 97 -124 159l-176 -80l-13 48l135 63q-64 33 -142 51l20 58q115 -29 196 -77l131 59l13 -48l-97 -45q151 -118 151 -328q0 -113 -58 -193q-68 -92 -190 -92q-105 0 -171 76q-60 70 -60 168q0 96 61 162zM149 106q46 -57 121 -57
q86 0 135 70q41 59 41 141q0 65 -45 107t-118 42q-85 0 -133 -56q-43 -49 -43 -122q0 -74 42 -125z" />
    <glyph glyph-name="ntilde" unicode="&#xf1;" horiz-adv-x="608" 
d="M87 422q0 22 -22 22h-42v59h70q61 0 61 -56v-23q0 -20 -2 -36h2q18 46 63 81q58 46 137 46q169 0 169 -195v-239q0 -22 22 -22h42v-59h-71q-61 0 -61 61v241q0 71 -18 104q-25 45 -91 45q-64 0 -115 -40q-51 -39 -68 -102q-8 -28 -8 -68v-241h-68v422zM159 587
q0 117 93 117q36 0 71 -36t55 -36q40 0 40 69h53q0 -117 -93 -117q-37 0 -72 36q-35 35 -55 35q-40 0 -40 -68h-52z" />
    <glyph glyph-name="ograve" unicode="&#xf2;" horiz-adv-x="611" 
d="M118 440q77 75 187 75q111 0 188 -75q78 -75 78 -186q0 -113 -78 -190q-77 -76 -187 -76q-111 0 -188 76q-78 77 -78 190q0 111 78 186zM168 108q56 -59 138 -59q81 0 138 59t57 146q0 85 -57 142t-138 57q-82 0 -138 -57q-58 -57 -58 -142q0 -87 58 -146zM189 703h76
l70 -119h-59z" />
    <glyph glyph-name="oacute" unicode="&#xf3;" horiz-adv-x="611" 
d="M118 440q77 75 187 75q111 0 188 -75q78 -75 78 -186q0 -113 -78 -190q-77 -76 -187 -76q-111 0 -188 76q-78 77 -78 190q0 111 78 186zM168 108q56 -59 138 -59q81 0 138 59t57 146q0 85 -57 142t-138 57q-82 0 -138 -57q-58 -57 -58 -142q0 -87 58 -146zM346 703h76
l-87 -119h-59z" />
    <glyph glyph-name="ocircumflex" unicode="&#xf4;" horiz-adv-x="611" 
d="M118 440q77 75 187 75q111 0 188 -75q78 -75 78 -186q0 -113 -78 -190q-77 -76 -187 -76q-111 0 -188 76q-78 77 -78 190q0 111 78 186zM168 108q56 -59 138 -59q81 0 138 59t57 146q0 85 -57 142t-138 57q-82 0 -138 -57q-58 -57 -58 -142q0 -87 58 -146zM271 703h70
l83 -119h-63l-54 81h-2l-54 -81h-63z" />
    <glyph glyph-name="otilde" unicode="&#xf5;" horiz-adv-x="611" 
d="M118 440q77 75 187 75q111 0 188 -75q78 -75 78 -186q0 -113 -78 -190q-77 -76 -187 -76q-111 0 -188 76q-78 77 -78 190q0 111 78 186zM168 108q56 -59 138 -59q81 0 138 59t57 146q0 85 -57 142t-138 57q-82 0 -138 -57q-58 -57 -58 -142q0 -87 58 -146zM148 587
q0 117 93 117q36 0 71 -36t55 -36q40 0 40 69h53q0 -117 -93 -117q-37 0 -72 36q-35 35 -55 35q-40 0 -40 -68h-52z" />
    <glyph glyph-name="odieresis" unicode="&#xf6;" horiz-adv-x="611" 
d="M118 440q77 75 187 75q111 0 188 -75q78 -75 78 -186q0 -113 -78 -190q-77 -76 -187 -76q-111 0 -188 76q-78 77 -78 190q0 111 78 186zM168 108q56 -59 138 -59q81 0 138 59t57 146q0 85 -57 142t-138 57q-82 0 -138 -57q-58 -57 -58 -142q0 -87 58 -146zM352 703h59
v-86h-59v86zM202 703h59v-86h-59v86z" />
    <glyph glyph-name="divide" unicode="&#xf7;" 
d="M257 507h75v-74h-75v74zM50 313h490v-58h-490v58zM257 135h75v-74h-75v74z" />
    <glyph glyph-name="oslash" unicode="&#xf8;" horiz-adv-x="611" 
d="M135 48q-95 79 -95 206q0 111 78 186q77 75 187 75q75 0 137 -37l39 55l41 -30l-39 -54q88 -77 88 -195q0 -113 -78 -190q-77 -76 -187 -76q-71 0 -129 32l-38 -53l-41 30zM405 426q-46 27 -99 27q-82 0 -138 -57q-58 -57 -58 -142q0 -91 63 -152zM214 73q43 -24 92 -24
q81 0 138 59t57 146q0 84 -58 140z" />
    <glyph glyph-name="ugrave" unicode="&#xf9;" horiz-adv-x="603" 
d="M85 422q0 22 -22 22h-42v59h71q61 0 61 -59v-243q0 -71 19 -104q25 -45 91 -45q82 0 135 64q50 61 50 146v241h68v-422q0 -22 22 -22h42v-59h-69q-61 0 -61 56v23q0 20 2 36h-2q-19 -46 -64 -82q-58 -45 -132 -45q-169 0 -169 195v239zM178 703h76l70 -119h-59z" />
    <glyph glyph-name="uacute" unicode="&#xfa;" horiz-adv-x="603" 
d="M85 422q0 22 -22 22h-42v59h71q61 0 61 -59v-243q0 -71 19 -104q25 -45 91 -45q82 0 135 64q50 61 50 146v241h68v-422q0 -22 22 -22h42v-59h-69q-61 0 -61 56v23q0 20 2 36h-2q-19 -46 -64 -82q-58 -45 -132 -45q-169 0 -169 195v239zM335 703h76l-87 -119h-59z" />
    <glyph glyph-name="ucircumflex" unicode="&#xfb;" horiz-adv-x="603" 
d="M85 422q0 22 -22 22h-42v59h71q61 0 61 -59v-243q0 -71 19 -104q25 -45 91 -45q82 0 135 64q50 61 50 146v241h68v-422q0 -22 22 -22h42v-59h-69q-61 0 -61 56v23q0 20 2 36h-2q-19 -46 -64 -82q-58 -45 -132 -45q-169 0 -169 195v239zM260 703h70l83 -119h-63l-54 81h-2
l-54 -81h-63z" />
    <glyph glyph-name="udieresis" unicode="&#xfc;" horiz-adv-x="603" 
d="M85 422q0 22 -22 22h-42v59h71q61 0 61 -59v-243q0 -71 19 -104q25 -45 91 -45q82 0 135 64q50 61 50 146v241h68v-422q0 -22 22 -22h42v-59h-69q-61 0 -61 56v23q0 20 2 36h-2q-19 -46 -64 -82q-58 -45 -132 -45q-169 0 -169 195v239zM341 703h59v-86h-59v86zM191 703
h59v-86h-59v86z" />
    <glyph glyph-name="yacute" unicode="&#xfd;" horiz-adv-x="539" 
d="M40 -111q0 -4 21 -19q27 -19 54 -19q59 0 93 82l30 69l-177 419q-10 23 -35 23h-10v59h31q34 0 49 -11q15 -10 28 -44l129 -314q10 -25 18 -54h2q7 29 17 54l124 314q13 34 28 44q15 11 50 11h31v-59h-10q-26 0 -35 -23l-217 -526q-43 -105 -144 -105q-70 0 -109 49z
M308 703h76l-87 -119h-59z" />
    <glyph glyph-name="thorn" unicode="&#xfe;" horiz-adv-x="584" 
d="M84 622q0 22 -22 22h-42v59h71q61 0 61 -61v-179q0 -26 -2 -44h2q49 96 169 96q102 0 162 -73q59 -72 59 -190t-59 -190q-60 -74 -162 -74q-80 0 -132 47q-27 24 -37 47h-2q2 -18 2 -44v-238h-68v822zM201 95q43 -46 113 -46q71 0 115 56q43 55 43 147q0 91 -43 146
q-44 55 -115 55q-72 0 -115 -45q-49 -53 -49 -157q0 -103 51 -156z" />
    <glyph glyph-name="ydieresis" unicode="&#xff;" horiz-adv-x="539" 
d="M40 -111q0 -4 21 -19q27 -19 54 -19q59 0 93 82l30 69l-177 419q-10 23 -35 23h-10v59h31q34 0 49 -11q15 -10 28 -44l129 -314q10 -25 18 -54h2q7 29 17 54l124 314q13 34 28 44q15 11 50 11h31v-59h-10q-26 0 -35 -23l-217 -526q-43 -105 -144 -105q-70 0 -109 49z
M314 703h59v-86h-59v86zM164 703h59v-86h-59v86z" />
    <glyph glyph-name="Amacron" unicode="&#x100;" horiz-adv-x="657" 
d="M12 62h13q28 0 36 22l230 619h75l230 -619q8 -22 36 -22h12v-62h-32q-38 0 -53 11q-17 11 -30 47l-61 166h-279l-62 -166q-14 -36 -29 -47q-16 -11 -53 -11h-33v62zM449 285l-93 251q-12 33 -27 91h-2q-15 -58 -27 -91l-92 -251h241zM206 839h246v-54h-246v54z" />
    <glyph glyph-name="amacron" unicode="&#x101;" horiz-adv-x="529" 
d="M348 310h28v6q0 78 -30 110t-100 32q-98 0 -98 -44v-32h-65v48q0 46 66 69q46 16 98 16q111 0 158 -56q39 -46 39 -137v-241q0 -22 22 -22h42v-59h-69q-60 0 -60 60q0 22 1 37h-2q2 0 -8 -17q-11 -20 -28 -37q-52 -55 -131 -55q-69 0 -117 37q-54 41 -54 112
q0 173 308 173zM138 76q31 -30 84 -30q68 0 113 61q41 55 41 126v23h-29q-97 0 -148 -15q-89 -26 -89 -100q0 -38 28 -65zM137 671h246v-54h-246v54z" />
    <glyph glyph-name="Abreve" unicode="&#x102;" horiz-adv-x="657" 
d="M12 62h13q28 0 36 22l230 619h75l230 -619q8 -22 36 -22h12v-62h-32q-38 0 -53 11q-17 11 -30 47l-61 166h-279l-62 -166q-14 -36 -29 -47q-16 -11 -53 -11h-33v62zM449 285l-93 251q-12 33 -27 91h-2q-15 -58 -27 -91l-92 -251h241zM251 776q-36 30 -36 80v15h52v-13
q0 -62 62 -62q61 0 61 62v13h52v-15q0 -50 -35 -80q-32 -27 -78 -27t-78 27z" />
    <glyph glyph-name="abreve" unicode="&#x103;" horiz-adv-x="529" 
d="M348 310h28v6q0 78 -30 110t-100 32q-98 0 -98 -44v-32h-65v48q0 46 66 69q46 16 98 16q111 0 158 -56q39 -46 39 -137v-241q0 -22 22 -22h42v-59h-69q-60 0 -60 60q0 22 1 37h-2q2 0 -8 -17q-11 -20 -28 -37q-52 -55 -131 -55q-69 0 -117 37q-54 41 -54 112
q0 173 308 173zM138 76q31 -30 84 -30q68 0 113 61q41 55 41 126v23h-29q-97 0 -148 -15q-89 -26 -89 -100q0 -38 28 -65zM182 608q-36 30 -36 80v15h52v-13q0 -62 62 -62q61 0 61 62v13h52v-15q0 -50 -35 -80q-32 -27 -78 -27t-78 27z" />
    <glyph glyph-name="Aogonek" unicode="&#x104;" horiz-adv-x="657" 
d="M12 62h13q28 0 36 22l230 619h75l230 -619q8 -22 36 -22h12v-62q-72 -58 -72 -99q0 -45 62 -50l-16 -56q-27 2 -54 14q-55 25 -55 78q0 63 69 115v2q-31 7 -49 54l-61 166h-279l-62 -166q-14 -36 -29 -47q-16 -11 -53 -11h-33v62zM449 285l-93 251q-12 33 -27 91h-2
q-15 -58 -27 -91l-92 -251h241z" />
    <glyph glyph-name="aogonek" unicode="&#x105;" horiz-adv-x="529" 
d="M348 310h28v6q0 77 -30 110q-30 32 -100 32q-31 0 -59 -8q-39 -13 -39 -36v-32h-65v48q0 46 65 69q46 16 99 16q111 0 158 -56q39 -46 39 -137v-241q0 -22 22 -22h42v-59q-73 -56 -73 -99q0 -45 62 -50l-15 -56q-27 2 -55 14q-55 25 -55 78q0 62 66 111v2h-11
q-49 0 -49 56v7q0 19 2 34h-2q-9 -27 -35 -54q-52 -55 -139 -55q-68 0 -115 40q-49 43 -49 109q0 173 308 173zM138 76q31 -30 84 -30q68 0 113 61q41 55 41 126v23h-29q-97 0 -148 -15q-89 -26 -89 -100q0 -38 28 -65z" />
    <glyph glyph-name="Cacute" unicode="&#x106;" horiz-adv-x="694" 
d="M137 612q100 103 248 103q92 0 169 -35q94 -42 94 -114v-58h-66v39q0 46 -67 76q-59 26 -128 26q-118 0 -196 -82q-80 -83 -80 -210t80 -214q80 -89 199 -89q145 0 230 99l40 -51q-97 -114 -271 -114q-153 0 -253 108q-98 105 -98 261q0 152 99 255zM423 871h76l-87 -119
h-59z" />
    <glyph glyph-name="cacute" unicode="&#x107;" horiz-adv-x="528" 
d="M116 441q76 74 189 74q59 0 111 -22q68 -30 68 -85v-45h-64v29q0 29 -42 47q-35 15 -73 15q-83 0 -138 -56q-57 -57 -57 -147t59 -147q56 -54 138 -54q103 0 162 71l32 -51q-68 -82 -197 -82q-114 0 -188 73q-76 74 -76 190q0 115 76 190zM331 703h76l-87 -119h-59z" />
    <glyph glyph-name="Ccircumflex" unicode="&#x108;" horiz-adv-x="694" 
d="M137 612q100 103 248 103q92 0 169 -35q94 -42 94 -114v-58h-66v39q0 46 -67 76q-59 26 -128 26q-118 0 -196 -82q-80 -83 -80 -210t80 -214q80 -89 199 -89q145 0 230 99l40 -51q-97 -114 -271 -114q-153 0 -253 108q-98 105 -98 261q0 152 99 255zM348 871h70l83 -119
h-63l-54 81h-2l-54 -81h-63z" />
    <glyph glyph-name="ccircumflex" unicode="&#x109;" horiz-adv-x="528" 
d="M116 441q76 74 189 74q59 0 111 -22q68 -30 68 -85v-45h-64v29q0 29 -42 47q-35 15 -73 15q-83 0 -138 -56q-57 -57 -57 -147t59 -147q56 -54 138 -54q103 0 162 71l32 -51q-68 -82 -197 -82q-114 0 -188 73q-76 74 -76 190q0 115 76 190zM256 703h70l83 -119h-63l-54 81
h-2l-54 -81h-63z" />
    <glyph glyph-name="Cdotaccent" unicode="&#x10a;" horiz-adv-x="694" 
d="M137 612q100 103 248 103q92 0 169 -35q94 -42 94 -114v-58h-66v39q0 46 -67 76q-59 26 -128 26q-118 0 -196 -82q-80 -83 -80 -210t80 -214q80 -89 199 -89q145 0 230 99l40 -51q-97 -114 -271 -114q-153 0 -253 108q-98 105 -98 261q0 152 99 255zM350 871h66v-86h-66
v86z" />
    <glyph glyph-name="cdotaccent" unicode="&#x10b;" horiz-adv-x="528" 
d="M116 441q76 74 189 74q59 0 111 -22q68 -30 68 -85v-45h-64v29q0 29 -42 47q-35 15 -73 15q-83 0 -138 -56q-57 -57 -57 -147t59 -147q56 -54 138 -54q103 0 162 71l32 -51q-68 -82 -197 -82q-114 0 -188 73q-76 74 -76 190q0 115 76 190zM258 703h66v-86h-66v86z" />
    <glyph glyph-name="Ccaron" unicode="&#x10c;" horiz-adv-x="694" 
d="M137 612q100 103 248 103q92 0 169 -35q94 -42 94 -114v-58h-66v39q0 46 -67 76q-59 26 -128 26q-118 0 -196 -82q-80 -83 -80 -210t80 -214q80 -89 199 -89q145 0 230 99l40 -51q-97 -114 -271 -114q-153 0 -253 108q-98 105 -98 261q0 152 99 255zM264 871h64l54 -80h2
l54 80h63l-84 -119h-69z" />
    <glyph glyph-name="ccaron" unicode="&#x10d;" horiz-adv-x="528" 
d="M116 441q76 74 189 74q59 0 111 -22q68 -30 68 -85v-45h-64v29q0 29 -42 47q-35 15 -73 15q-83 0 -138 -56q-57 -57 -57 -147t59 -147q56 -54 138 -54q103 0 162 71l32 -51q-68 -82 -197 -82q-114 0 -188 73q-76 74 -76 190q0 115 76 190zM172 703h64l54 -80h2l54 80h63
l-84 -119h-69z" />
    <glyph glyph-name="Dcaron" unicode="&#x10e;" horiz-adv-x="715" 
d="M107 641h-65v62h282q161 0 256 -92q97 -95 97 -259q0 -166 -97 -260q-95 -92 -256 -92h-156q-61 0 -61 61v580zM177 84q0 -22 22 -22h118q132 0 208 75q79 76 79 215q0 138 -79 215q-76 74 -208 74h-140v-557zM231 871h64l54 -80h2l54 80h63l-84 -119h-69z" />
    <glyph glyph-name="dcaron" unicode="&#x10f;" horiz-adv-x="664" 
d="M106 443q62 72 162 72q76 0 128 -47q26 -23 36 -47h2q-2 17 -2 38v163q0 22 -22 22h-42v59h71q61 0 61 -61v-561q0 -22 22 -22h42v-59h-70q-60 0 -60 56q0 19 2 32h-2q-10 -25 -37 -50q-53 -50 -136 -50q-100 0 -160 74q-59 72 -59 190t64 191zM384 97q50 54 50 155
q0 83 -39 139q-45 63 -121 63q-69 0 -114 -53q-48 -57 -48 -149t44 -148q44 -55 115 -55q69 0 113 48zM624 703q7 -24 7 -48q0 -36 -24 -89h-53q19 48 19 80q0 28 -11 57h62z" />
    <glyph glyph-name="Dcroat" unicode="&#x110;" horiz-adv-x="715" 
d="M107 323h-50v60h50v258h-65v62h282q161 0 256 -92q97 -95 97 -259q0 -166 -97 -260q-95 -92 -256 -92h-156q-61 0 -61 61v262zM177 84q0 -22 22 -22h118q132 0 208 75q79 76 79 215q0 138 -79 215q-76 74 -208 74h-140v-258h164v-60h-164v-239z" />
    <glyph glyph-name="dcroat" unicode="&#x111;" horiz-adv-x="588" 
d="M101 62q-59 72 -59 190t64 191q62 72 162 72q76 0 128 -47q26 -23 36 -47h2q-2 17 -2 38v107h-131v51h131v86h68v-86h80v-51h-80v-485q0 -22 22 -22h42v-59h-70q-60 0 -60 56q0 19 2 32h-2q-10 -25 -37 -50q-53 -50 -136 -50q-100 0 -160 74zM384 97q50 54 50 155
q0 83 -39 139q-45 63 -121 63q-69 0 -114 -53q-48 -57 -48 -149t44 -148q44 -55 115 -55q69 0 113 48z" />
    <glyph glyph-name="Emacron" unicode="&#x112;" horiz-adv-x="558" 
d="M107 641h-65v62h402q61 0 61 -61v-70h-66v47q0 22 -22 22h-240v-256h264v-62h-264v-239q0 -22 22 -22h247q22 0 22 22v47h65v-70q0 -61 -61 -61h-304q-61 0 -61 61v580zM171 839h246v-54h-246v54z" />
    <glyph glyph-name="emacron" unicode="&#x113;" horiz-adv-x="548" 
d="M113 445q70 70 175 70q100 0 158 -69q53 -64 53 -163q0 -12 -2 -34h-386q1 -92 59 -148q55 -52 136 -52q92 0 151 62l33 -51q-73 -72 -187 -72q-113 0 -187 73q-76 75 -76 190q0 120 73 194zM429 303q-3 75 -45 117q-38 38 -97 38q-65 0 -111 -40q-50 -42 -62 -115h315z
M163 671h246v-54h-246v54z" />
    <glyph glyph-name="Ebreve" unicode="&#x114;" horiz-adv-x="558" 
d="M107 641h-65v62h402q61 0 61 -61v-70h-66v47q0 22 -22 22h-240v-256h264v-62h-264v-239q0 -22 22 -22h247q22 0 22 22v47h65v-70q0 -61 -61 -61h-304q-61 0 -61 61v580zM217 776q-36 30 -36 80v15h52v-13q0 -62 62 -62q61 0 61 62v13h52v-15q0 -50 -35 -80
q-32 -27 -78 -27t-78 27z" />
    <glyph glyph-name="ebreve" unicode="&#x115;" horiz-adv-x="548" 
d="M113 445q70 70 175 70q100 0 158 -69q53 -64 53 -163q0 -12 -2 -34h-386q1 -92 59 -148q55 -52 136 -52q92 0 151 62l33 -51q-73 -72 -187 -72q-113 0 -187 73q-76 75 -76 190q0 120 73 194zM429 303q-3 75 -45 117q-38 38 -97 38q-65 0 -111 -40q-50 -42 -62 -115h315z
M208 608q-36 30 -36 80v15h52v-13q0 -62 62 -62q61 0 61 62v13h52v-15q0 -50 -35 -80q-32 -27 -78 -27t-78 27z" />
    <glyph glyph-name="Edotaccent" unicode="&#x116;" horiz-adv-x="558" 
d="M107 641h-65v62h402q61 0 61 -61v-70h-66v47q0 22 -22 22h-240v-256h264v-62h-264v-239q0 -22 22 -22h247q22 0 22 22v47h65v-70q0 -61 -61 -61h-304q-61 0 -61 61v580zM261 871h66v-86h-66v86z" />
    <glyph glyph-name="edotaccent" unicode="&#x117;" horiz-adv-x="548" 
d="M113 445q70 70 175 70q100 0 158 -69q53 -64 53 -163q0 -12 -2 -34h-386q1 -92 59 -148q55 -52 136 -52q92 0 151 62l33 -51q-73 -72 -187 -72q-113 0 -187 73q-76 75 -76 190q0 120 73 194zM429 303q-3 75 -45 117q-38 38 -97 38q-65 0 -111 -40q-50 -42 -62 -115h315z
M253 703h66v-86h-66v86z" />
    <glyph glyph-name="Eogonek" unicode="&#x118;" horiz-adv-x="558" 
d="M107 641h-65v62h402q61 0 61 -61v-70h-66v47q0 22 -22 22h-240v-256h264v-62h-264v-239q0 -22 22 -22h247q22 0 22 22v47h65v-70q0 -34 -20 -52q-85 -69 -85 -108q0 -45 62 -50l-15 -56q-27 2 -55 14q-55 25 -55 78q0 63 65 111v2h-262q-61 0 -61 61v580z" />
    <glyph glyph-name="eogonek" unicode="&#x119;" horiz-adv-x="548" 
d="M113 445q70 70 175 70q100 0 158 -69q53 -64 53 -163q0 -12 -2 -34h-386q1 -91 59 -147q55 -53 136 -53q92 0 151 62l33 -51q-11 -11 -40 -32q-34 -24 -48 -36q-57 -48 -57 -91q0 -45 62 -50l-15 -56q-27 2 -55 14q-55 25 -55 78q0 52 54 102v2q-15 -3 -33 -3
q-113 0 -187 73q-76 75 -76 190q0 120 73 194zM429 303q-4 75 -45 117q-38 38 -97 38q-65 0 -111 -40q-50 -42 -62 -115h315z" />
    <glyph glyph-name="Ecaron" unicode="&#x11a;" horiz-adv-x="558" 
d="M107 641h-65v62h402q61 0 61 -61v-70h-66v47q0 22 -22 22h-240v-256h264v-62h-264v-239q0 -22 22 -22h247q22 0 22 22v47h65v-70q0 -61 -61 -61h-304q-61 0 -61 61v580zM175 871h64l54 -80h2l54 80h63l-84 -119h-69z" />
    <glyph glyph-name="ecaron" unicode="&#x11b;" horiz-adv-x="548" 
d="M113 445q70 70 175 70q100 0 158 -69q53 -64 53 -163q0 -12 -2 -34h-386q1 -92 59 -148q55 -52 136 -52q92 0 151 62l33 -51q-73 -72 -187 -72q-113 0 -187 73q-76 75 -76 190q0 120 73 194zM429 303q-3 75 -45 117q-38 38 -97 38q-65 0 -111 -40q-50 -42 -62 -115h315z
M167 703h64l54 -80h2l54 80h63l-84 -119h-69z" />
    <glyph glyph-name="Gcircumflex" unicode="&#x11c;" horiz-adv-x="730" 
d="M140 610q101 105 250 105q163 0 246 -86l-41 -52q-78 72 -204 72q-119 0 -199 -85q-80 -84 -80 -211q0 -129 79 -214t199 -85q139 0 222 103v87q0 22 -22 22h-43v62h70q61 0 61 -61v-267h-64v53q0 15 1 30h-2q-82 -95 -230 -95q-145 0 -244 103q-100 105 -100 262
q0 152 101 257zM352 871h70l83 -119h-63l-54 81h-2l-54 -81h-63z" />
    <glyph glyph-name="gcircumflex" unicode="&#x11d;" horiz-adv-x="579" 
d="M100 445q60 70 160 70q84 0 134 -43q25 -21 33 -43h2v19q0 55 57 55h70v-59h-41q-22 0 -22 -22v-410q0 -112 -74 -171q-65 -51 -168 -51q-86 0 -164 40l26 57q62 -35 136 -35q79 0 125 37q51 41 51 121v44q0 19 1 36h-2q-47 -87 -158 -87q-101 0 -163 72q-61 72 -61 186
t58 184zM426 261q0 192 -159 192q-73 0 -114 -50q-41 -51 -41 -141t45 -144t119 -54q150 0 150 197zM254 703h70l83 -119h-63l-54 81h-2l-54 -81h-63z" />
    <glyph glyph-name="Gbreve" unicode="&#x11e;" horiz-adv-x="730" 
d="M140 610q101 105 250 105q163 0 246 -86l-41 -52q-78 72 -204 72q-119 0 -199 -85q-80 -84 -80 -211q0 -129 79 -214t199 -85q139 0 222 103v87q0 22 -22 22h-43v62h70q61 0 61 -61v-267h-64v53q0 15 1 30h-2q-82 -95 -230 -95q-145 0 -244 103q-100 105 -100 262
q0 152 101 257zM310 776q-36 30 -36 80v15h52v-13q0 -62 62 -62q61 0 61 62v13h52v-15q0 -50 -35 -80q-32 -27 -78 -27t-78 27z" />
    <glyph glyph-name="gbreve" unicode="&#x11f;" horiz-adv-x="579" 
d="M100 445q60 70 160 70q84 0 134 -43q25 -21 33 -43h2v19q0 55 57 55h70v-59h-41q-22 0 -22 -22v-410q0 -112 -74 -171q-65 -51 -168 -51q-86 0 -164 40l26 57q62 -35 136 -35q79 0 125 37q51 41 51 121v44q0 19 1 36h-2q-47 -87 -158 -87q-101 0 -163 72q-61 72 -61 186
t58 184zM426 261q0 192 -159 192q-73 0 -114 -50q-41 -51 -41 -141t45 -144t119 -54q150 0 150 197zM212 608q-36 30 -36 80v15h52v-13q0 -62 62 -62q61 0 61 62v13h52v-15q0 -50 -35 -80q-32 -27 -78 -27t-78 27z" />
    <glyph glyph-name="Gdotaccent" unicode="&#x120;" horiz-adv-x="730" 
d="M140 610q101 105 250 105q163 0 246 -86l-41 -52q-78 72 -204 72q-119 0 -199 -85q-80 -84 -80 -211q0 -129 79 -214t199 -85q139 0 222 103v87q0 22 -22 22h-43v62h70q61 0 61 -61v-267h-64v53q0 15 1 30h-2q-82 -95 -230 -95q-145 0 -244 103q-100 105 -100 262
q0 152 101 257zM355 871h66v-86h-66v86z" />
    <glyph glyph-name="gdotaccent" unicode="&#x121;" horiz-adv-x="579" 
d="M100 445q60 70 160 70q84 0 134 -43q25 -21 33 -43h2v19q0 55 57 55h70v-59h-41q-22 0 -22 -22v-410q0 -112 -74 -171q-65 -51 -168 -51q-86 0 -164 40l26 57q62 -35 136 -35q79 0 125 37q51 41 51 121v44q0 19 1 36h-2q-47 -87 -158 -87q-101 0 -163 72q-61 72 -61 186
t58 184zM426 261q0 192 -159 192q-73 0 -114 -50q-41 -51 -41 -141t45 -144t119 -54q150 0 150 197zM256 703h66v-86h-66v86z" />
    <glyph glyph-name="Gcommaaccent" unicode="&#x122;" horiz-adv-x="730" 
d="M140 610q101 105 250 105q163 0 246 -86l-41 -52q-78 72 -204 72q-119 0 -199 -85q-80 -84 -80 -211q0 -129 79 -214t199 -85q139 0 222 103v87q0 22 -22 22h-43v62h70q61 0 61 -61v-267h-64v53q0 15 1 30h-2q-82 -95 -230 -95q-145 0 -244 103q-100 105 -100 262
q0 152 101 257zM409 -63q7 -24 7 -48q0 -36 -24 -89h-53q19 48 19 80q0 28 -11 57h62z" />
    <glyph glyph-name="gcommaaccent" unicode="&#x123;" horiz-adv-x="579" 
d="M100 445q60 70 160 70q84 0 134 -43q25 -21 33 -43h2v19q0 55 57 55h70v-59h-41q-22 0 -22 -22v-410q0 -112 -74 -171q-65 -51 -168 -51q-86 0 -164 40l26 57q62 -35 136 -35q79 0 125 37q51 41 51 121v44q0 19 1 36h-2q-47 -87 -158 -87q-101 0 -163 72q-61 72 -61 186
t58 184zM426 261q0 192 -159 192q-73 0 -114 -50q-41 -51 -41 -141t45 -144t119 -54q150 0 150 197zM249 566q-7 24 -7 48q0 36 24 89h53q-19 -47 -19 -80q0 -28 11 -57h-62z" />
    <glyph glyph-name="Hcircumflex" unicode="&#x124;" horiz-adv-x="757" 
d="M107 619q0 22 -22 22h-43v62h74q61 0 61 -61v-259h404v259q0 61 60 61h75v-62h-43q-22 0 -22 -22v-619h-70v321h-404v-321h-70v619zM344 871h70l83 -119h-63l-54 81h-2l-54 -81h-63z" />
    <glyph glyph-name="hcircumflex" unicode="&#x125;" horiz-adv-x="605" 
d="M84 622q0 22 -22 22h-42v59h71q61 0 61 -59v-213q0 -23 -2 -41h2q18 45 64 81q59 44 135 44q169 0 169 -195v-239q0 -22 22 -22h42v-59h-71q-61 0 -61 61v241q0 71 -18 104q-25 45 -92 45q-64 0 -114 -40q-51 -40 -68 -103q-8 -27 -8 -67v-241h-68v622zM283 871h70
l83 -119h-63l-54 81h-2l-54 -81h-63z" />
    <glyph glyph-name="Hbar" unicode="&#x126;" horiz-adv-x="757" 
d="M107 512h-66v54h66v137h70v-137h404v137h70v-137h65v-54h-65v-512h-70v321h-404v-321h-70v512zM581 383v129h-404v-129h404z" />
    <glyph glyph-name="hbar" unicode="&#x127;" horiz-adv-x="605" 
d="M84 566h-79v51h79v86h68v-86h131v-51h-131v-135q0 -23 -2 -41h2q14 41 58 76q60 49 141 49q169 0 169 -195v-239q0 -22 22 -22h42v-59h-71q-61 0 -61 61v241q0 71 -18 104q-25 45 -92 45q-82 0 -136 -61q-54 -60 -54 -149v-241h-68v566z" />
    <glyph glyph-name="Itilde" unicode="&#x128;" horiz-adv-x="293" 
d="M46 62h66v579h-66v62h201v-62h-67v-579h67v-62h-201v62zM-12 755q0 117 93 117q36 0 71 -36t55 -36q40 0 40 69h53q0 -117 -93 -117q-37 0 -72 36q-35 35 -55 35q-40 0 -40 -68h-52z" />
    <glyph glyph-name="itilde" unicode="&#x129;" horiz-adv-x="252" 
d="M93 422q0 22 -22 22h-42v59h71q61 0 61 -61v-361q0 -22 22 -22h42v-59h-71q-61 0 -61 61v361zM-16 587q0 117 83 117q31 0 60 -35q28 -35 40 -35q34 0 34 67h50q0 -117 -83 -117q-31 0 -60 35q-28 35 -39 35q-34 0 -34 -67h-51z" />
    <glyph glyph-name="Imacron" unicode="&#x12a;" horiz-adv-x="293" 
d="M46 62h66v579h-66v62h201v-62h-67v-579h67v-62h-201v62zM23 839h246v-54h-246v54z" />
    <glyph glyph-name="imacron" unicode="&#x12b;" horiz-adv-x="252" 
d="M93 422q0 22 -22 22h-42v59h71q61 0 61 -61v-361q0 -22 22 -22h42v-59h-71q-61 0 -61 61v361zM13 671h214v-54h-214v54z" />
    <glyph glyph-name="Ibreve" unicode="&#x12c;" horiz-adv-x="293" 
d="M46 62h66v579h-66v62h201v-62h-67v-579h67v-62h-201v62zM68 776q-36 30 -36 80v15h52v-13q0 -62 62 -62q61 0 61 62v13h52v-15q0 -50 -35 -80q-32 -27 -78 -27t-78 27z" />
    <glyph glyph-name="ibreve" unicode="&#x12d;" horiz-adv-x="252" 
d="M93 422q0 22 -22 22h-42v59h71q61 0 61 -61v-361q0 -22 22 -22h42v-59h-71q-61 0 -61 61v361zM42 608q-36 30 -36 80v15h52v-13q0 -62 62 -62q61 0 61 62v13h52v-15q0 -50 -35 -80q-32 -27 -78 -27t-78 27z" />
    <glyph glyph-name="Iogonek" unicode="&#x12e;" horiz-adv-x="293" 
d="M46 62h66v579h-66v62h201v-62h-67v-579h67v-62q-73 -56 -73 -99q0 -45 62 -50l-15 -56q-27 2 -55 14q-55 25 -55 78q0 63 65 111v2h-130v62z" />
    <glyph glyph-name="iogonek" unicode="&#x12f;" horiz-adv-x="251" 
d="M90 703h66v-86h-66v86zM160 81q0 -22 22 -22h42v-59q-72 -58 -72 -99q0 -45 62 -50l-16 -56q-27 2 -54 14q-55 25 -55 78q0 62 65 111v2h-11q-51 0 -51 83v339q0 22 -22 22h-42v59h71q61 0 61 -61v-361z" />
    <glyph glyph-name="Idotaccent" unicode="&#x130;" horiz-adv-x="293" 
d="M46 62h66v579h-66v62h201v-62h-67v-579h67v-62h-201v62zM113 871h66v-86h-66v86z" />
    <glyph glyph-name="dotlessi" unicode="&#x131;" horiz-adv-x="252" 
d="M93 422q0 22 -22 22h-42v59h71q61 0 61 -61v-361q0 -22 22 -22h42v-59h-71q-61 0 -61 61v361z" />
    <glyph glyph-name="IJ" unicode="&#x132;" horiz-adv-x="642" 
d="M341 60q147 0 147 168v391q0 22 -22 22h-119v62h150q61 0 61 -61v-414q0 -233 -217 -233v65zM46 62h66v579h-66v62h201v-62h-67v-579h67v-62h-201v62z" />
    <glyph glyph-name="ij" unicode="&#x133;" horiz-adv-x="510" 
d="M90 703h66v-86h-66v86zM92 422q0 22 -22 22h-42v59h71q61 0 61 -61v-361q0 -22 22 -22h42v-59h-71q-61 0 -61 61v361zM355 703h66v-86h-66v86zM220 -144q9 -1 22 -1q115 0 115 129v438q0 22 -22 22h-42v59h71q61 0 61 -61v-461q0 -109 -67 -156q-44 -31 -109 -31
q-17 0 -29 3v59z" />
    <glyph glyph-name="Jcircumflex" unicode="&#x134;" horiz-adv-x="505" 
d="M24 225h70v-24q0 -77 41 -115q34 -32 88 -32q53 0 87 32q40 38 40 113v420q0 22 -22 22h-174v62h205q61 0 61 -61v-445q0 -106 -63 -161q-53 -48 -135 -48t-135 48q-63 56 -63 161v28zM245 871h70l83 -119h-63l-54 81h-2l-54 -81h-63z" />
    <glyph glyph-name="jcircumflex" unicode="&#x135;" horiz-adv-x="267" 
d="M90 703h69l84 -119h-63l-56 82l-55 -82h-63zM-21 -144q9 -2 22 -2q114 0 114 129v440q0 22 -23 22h-41v58h70q61 0 61 -58v-464q0 -109 -66 -156q-43 -31 -108 -31q-18 0 -29 3v59z" />
    <glyph glyph-name="Kcommaaccent" unicode="&#x136;" horiz-adv-x="590" 
d="M107 619q0 22 -22 22h-43v62h74q61 0 61 -61v-244h84q44 0 59 25l170 280h80l-181 -295q-18 -29 -36 -39v-2q17 -6 34 -40l122 -242q11 -23 51 -23h20v-62h-37q-44 0 -61 9q-19 10 -36 44l-128 257q-12 26 -64 26h-77v-336h-70v619zM342 -63q7 -24 7 -48q0 -36 -24 -89
h-53q19 48 19 80q0 28 -11 57h62z" />
    <glyph glyph-name="kcommaaccent" unicode="&#x137;" horiz-adv-x="498" 
d="M84 622q0 22 -22 22h-42v59h71q61 0 61 -58v-334h52q38 0 57 24l129 168h83l-145 -184q-25 -31 -38 -36v-2q15 -7 31 -37l91 -163q12 -22 46 -22h27v-59h-47q-38 0 -54 9q-16 10 -33 41l-100 180q-12 22 -53 22h-46v-252h-68v622zM293 -63q7 -24 7 -48q0 -36 -24 -89h-53
q19 48 19 80q0 28 -11 57h62z" />
    <glyph glyph-name="kgreenlandic" unicode="&#x138;" horiz-adv-x="498" 
d="M84 422q0 22 -22 22h-42v59h71q61 0 61 -58v-157h52q39 0 57 24l137 191h82l-153 -206q-24 -32 -36 -36v-2q13 -6 30 -37l79 -141q12 -22 46 -22h32v-59h-52q-38 0 -54 9q-16 10 -33 41l-88 157q-12 22 -53 22h-46v-229h-68v422z" />
    <glyph glyph-name="Lacute" unicode="&#x139;" horiz-adv-x="530" 
d="M107 619q0 22 -22 22h-43v62h74q61 0 61 -61v-558q0 -22 22 -22h233q22 0 22 22v47h66v-70q0 -61 -61 -61h-291q-61 0 -61 61v558zM185 871h76l-87 -119h-59z" />
    <glyph glyph-name="lacute" unicode="&#x13a;" horiz-adv-x="245" 
d="M86 622q0 22 -22 22h-42v59h71q61 0 61 -61v-561q0 -22 22 -22h42v-59h-71q-61 0 -61 61v561zM145 871h76l-87 -119h-59z" />
    <glyph glyph-name="Lcommaaccent" unicode="&#x13b;" horiz-adv-x="530" 
d="M107 619q0 22 -22 22h-43v62h74q61 0 61 -61v-558q0 -22 22 -22h233q22 0 22 22v47h66v-70q0 -61 -61 -61h-291q-61 0 -61 61v558zM341 -63q7 -24 7 -48q0 -36 -24 -89h-53q19 48 19 80q0 28 -11 57h62z" />
    <glyph glyph-name="lcommaaccent" unicode="&#x13c;" horiz-adv-x="245" 
d="M86 622q0 22 -22 22h-42v59h71q61 0 61 -61v-561q0 -22 22 -22h42v-59h-71q-61 0 -61 61v561zM165 -63q7 -24 7 -48q0 -36 -24 -89h-53q19 48 19 80q0 28 -11 57h62z" />
    <glyph glyph-name="Lcaron" unicode="&#x13d;" horiz-adv-x="530" 
d="M107 619q0 22 -22 22h-43v62h74q61 0 61 -61v-558q0 -22 22 -22h233q22 0 22 22v47h66v-70q0 -61 -61 -61h-291q-61 0 -61 61v558zM330 703q7 -24 7 -48q0 -36 -24 -89h-53q19 48 19 80q0 28 -11 57h62z" />
    <glyph glyph-name="lcaron" unicode="&#x13e;" horiz-adv-x="318" 
d="M86 622q0 22 -22 22h-42v59h71q61 0 61 -61v-561q0 -22 22 -22h42v-59h-71q-61 0 -61 61v561zM278 703q7 -24 7 -48q0 -36 -24 -89h-53q19 48 19 80q0 28 -11 57h62z" />
    <glyph glyph-name="Ldot" unicode="&#x13f;" horiz-adv-x="530" 
d="M107 619q0 22 -22 22h-43v62h74q61 0 61 -61v-558q0 -22 22 -22h233q22 0 22 22v47h66v-70q0 -61 -61 -61h-291q-61 0 -61 61v558zM301 412h77v-80h-77v80z" />
    <glyph glyph-name="ldot" unicode="&#x140;" horiz-adv-x="305" 
d="M86 622q0 22 -22 22h-42v59h71q61 0 61 -61v-561q0 -22 22 -22h42v-59h-71q-61 0 -61 61v561zM223 412h77v-80h-77v80z" />
    <glyph glyph-name="Lslash" unicode="&#x141;" horiz-adv-x="530" 
d="M107 338l-65 -36v70l65 37v210q0 22 -22 22h-43v62h74q61 0 61 -61v-193l109 64v-72l-109 -63v-294q0 -22 22 -22h233q22 0 22 22v47h66v-70q0 -61 -61 -61h-291q-61 0 -61 61v277z" />
    <glyph glyph-name="lslash" unicode="&#x142;" horiz-adv-x="267" 
d="M101 355l-85 -48v71l85 49v195q0 22 -22 22h-42v59h71q61 0 61 -61v-176l83 48v-72l-83 -48v-313q0 -22 22 -22h42v-59h-71q-61 0 -61 61v294z" />
    <glyph glyph-name="Nacute" unicode="&#x143;" horiz-adv-x="760" 
d="M42 62h43q22 0 22 22v619h64l359 -501q24 -35 57 -92h2q-5 55 -5 92v440q0 61 61 61h74v-62h-43q-22 0 -22 -22v-619h-64l-359 501q-25 34 -58 91h-2q6 -54 6 -91v-440q0 -61 -61 -61h-74v62zM431 871h76l-87 -119h-59z" />
    <glyph glyph-name="nacute" unicode="&#x144;" horiz-adv-x="608" 
d="M87 422q0 22 -22 22h-42v59h70q61 0 61 -56v-23q0 -20 -2 -36h2q18 46 63 81q58 46 137 46q169 0 169 -195v-239q0 -22 22 -22h42v-59h-71q-61 0 -61 61v241q0 71 -18 104q-25 45 -91 45q-64 0 -115 -40q-51 -39 -68 -102q-8 -28 -8 -68v-241h-68v422zM357 703h76
l-87 -119h-59z" />
    <glyph glyph-name="Ncommaaccent" unicode="&#x145;" horiz-adv-x="760" 
d="M42 62h43q22 0 22 22v619h64l359 -501q24 -35 57 -92h2q-5 55 -5 92v440q0 61 61 61h74v-62h-43q-22 0 -22 -22v-619h-64l-359 501q-25 34 -58 91h-2q6 -54 6 -91v-440q0 -61 -61 -61h-74v62zM406 -63q7 -24 7 -48q0 -36 -24 -89h-53q19 48 19 80q0 28 -11 57h62z" />
    <glyph glyph-name="ncommaaccent" unicode="&#x146;" horiz-adv-x="608" 
d="M87 422q0 22 -22 22h-42v59h70q61 0 61 -56v-23q0 -20 -2 -36h2q18 46 63 81q58 46 137 46q169 0 169 -195v-239q0 -22 22 -22h42v-59h-71q-61 0 -61 61v241q0 71 -18 104q-25 45 -91 45q-64 0 -115 -40q-51 -39 -68 -102q-8 -28 -8 -68v-241h-68v422zM349 -63
q7 -24 7 -48q0 -36 -24 -89h-53q19 48 19 80q0 28 -11 57h62z" />
    <glyph glyph-name="Ncaron" unicode="&#x147;" horiz-adv-x="760" 
d="M42 62h43q22 0 22 22v619h64l359 -501q24 -35 57 -92h2q-5 55 -5 92v440q0 61 61 61h74v-62h-43q-22 0 -22 -22v-619h-64l-359 501q-25 34 -58 91h-2q6 -54 6 -91v-440q0 -61 -61 -61h-74v62zM272 871h64l54 -80h2l54 80h63l-84 -119h-69z" />
    <glyph glyph-name="ncaron" unicode="&#x148;" horiz-adv-x="608" 
d="M87 422q0 22 -22 22h-42v59h70q61 0 61 -56v-23q0 -20 -2 -36h2q18 46 63 81q58 46 137 46q169 0 169 -195v-239q0 -22 22 -22h42v-59h-71q-61 0 -61 61v241q0 71 -18 104q-25 45 -91 45q-64 0 -115 -40q-51 -39 -68 -102q-8 -28 -8 -68v-241h-68v422zM198 703h64l54 -80
h2l54 80h63l-84 -119h-69z" />
    <glyph glyph-name="napostrophe" unicode="&#x149;" horiz-adv-x="632" 
d="M111 422q0 22 -22 22h-42v59h70q61 0 61 -56v-23q0 -20 -2 -36h2q18 46 63 81q58 46 137 46q169 0 169 -195v-239q0 -22 22 -22h42v-59h-71q-61 0 -61 61v241q0 71 -18 104q-25 45 -91 45q-64 0 -115 -40q-51 -39 -68 -102q-8 -28 -8 -68v-241h-68v422zM61 703
q7 -24 7 -48q0 -36 -24 -89h-53q19 48 19 80q0 28 -11 57h62z" />
    <glyph glyph-name="Eng" unicode="&#x14a;" horiz-adv-x="760" 
d="M42 62h43q22 0 22 22v619h64l359 -501q24 -35 57 -92h2q-5 55 -5 92v440q0 61 61 61h74v-62h-43q-22 0 -22 -22v-607q0 -114 -67 -171q-55 -46 -142 -46v65q55 0 93 32q46 38 46 111v7l-353 491q-25 34 -58 91h-2q6 -54 6 -91v-440q0 -61 -61 -61h-74v62z" />
    <glyph glyph-name="eng" unicode="&#x14b;" horiz-adv-x="603" 
d="M87 422q0 22 -22 22h-42v59h70q61 0 61 -56v-23q0 -20 -2 -36h2q18 46 63 81q58 46 137 46q169 0 169 -195v-343q0 -109 -66 -156q-44 -31 -109 -31q-18 0 -29 3v59q9 -1 22 -1q114 0 114 129v322q0 71 -18 104q-25 45 -91 45q-64 0 -115 -40t-68 -103q-8 -27 -8 -67
v-241h-68v422z" />
    <glyph glyph-name="Omacron" unicode="&#x14c;" horiz-adv-x="791" 
d="M142 611q104 104 254 104t254 -104t104 -255q0 -154 -104 -261q-105 -107 -254 -107q-150 0 -254 107t-104 261q0 151 104 255zM194 141q83 -87 202 -87q118 0 201 87q84 88 84 215q0 124 -84 209q-82 84 -201 84t-202 -84q-83 -85 -83 -209q0 -127 83 -215zM270 839h246
v-54h-246v54z" />
    <glyph glyph-name="omacron" unicode="&#x14d;" horiz-adv-x="611" 
d="M118 440q77 75 187 75q111 0 188 -75q78 -75 78 -186q0 -113 -78 -190q-77 -76 -187 -76q-111 0 -188 76q-78 77 -78 190q0 111 78 186zM168 108q56 -59 138 -59q81 0 138 59t57 146q0 85 -57 142t-138 57q-82 0 -138 -57q-58 -57 -58 -142q0 -87 58 -146zM183 671h246
v-54h-246v54z" />
    <glyph glyph-name="Obreve" unicode="&#x14e;" horiz-adv-x="791" 
d="M142 611q104 104 254 104t254 -104t104 -255q0 -154 -104 -261q-105 -107 -254 -107q-150 0 -254 107t-104 261q0 151 104 255zM194 141q83 -87 202 -87q118 0 201 87q84 88 84 215q0 124 -84 209q-82 84 -201 84t-202 -84q-83 -85 -83 -209q0 -127 83 -215zM315 776
q-36 30 -36 80v15h52v-13q0 -62 62 -62q61 0 61 62v13h52v-15q0 -50 -35 -80q-32 -27 -78 -27t-78 27z" />
    <glyph glyph-name="obreve" unicode="&#x14f;" horiz-adv-x="611" 
d="M118 440q77 75 187 75q111 0 188 -75q78 -75 78 -186q0 -113 -78 -190q-77 -76 -187 -76q-111 0 -188 76q-78 77 -78 190q0 111 78 186zM168 108q56 -59 138 -59q81 0 138 59t57 146q0 85 -57 142t-138 57q-82 0 -138 -57q-58 -57 -58 -142q0 -87 58 -146zM228 608
q-36 30 -36 80v15h52v-13q0 -62 62 -62q61 0 61 62v13h52v-15q0 -50 -35 -80q-32 -27 -78 -27t-78 27z" />
    <glyph glyph-name="Ohungarumlaut" unicode="&#x150;" horiz-adv-x="791" 
d="M142 611q104 104 254 104t254 -104t104 -255q0 -154 -104 -261q-105 -107 -254 -107q-150 0 -254 107t-104 261q0 151 104 255zM194 141q83 -87 202 -87q118 0 201 87q84 88 84 215q0 124 -84 209q-82 84 -201 84t-202 -84q-83 -85 -83 -209q0 -127 83 -215zM498 871h76
l-87 -119h-59zM361 871h65l-67 -119h-64z" />
    <glyph glyph-name="ohungarumlaut" unicode="&#x151;" horiz-adv-x="611" 
d="M118 440q77 75 187 75q111 0 188 -75q78 -75 78 -186q0 -113 -78 -190q-77 -76 -187 -76q-111 0 -188 76q-78 77 -78 190q0 111 78 186zM168 108q56 -59 138 -59q81 0 138 59t57 146q0 85 -57 142t-138 57q-82 0 -138 -57q-58 -57 -58 -142q0 -87 58 -146zM411 703h76
l-87 -119h-59zM274 703h65l-67 -119h-64z" />
    <glyph glyph-name="OE" unicode="&#x152;" horiz-adv-x="910" 
d="M134 608q97 105 243 105q25 0 75 -5t67 -5h276q61 0 61 -61v-70h-65v47q0 22 -22 22h-233v-256h256v-62h-256v-261h262q22 0 22 22v47h65v-70q0 -61 -56 -61h-309q-17 0 -67 -5q-51 -5 -76 -5q-146 0 -243 105q-96 103 -96 257q0 153 96 256zM184 142q74 -85 193 -85
q58 0 89 7v574q-35 8 -89 8q-118 0 -193 -84q-73 -83 -73 -210q0 -128 73 -210z" />
    <glyph glyph-name="oe" unicode="&#x153;" horiz-adv-x="1010" 
d="M119 443q75 72 186 72q158 0 228 -135h2q61 135 215 135q100 0 158 -69q53 -64 53 -163q0 -12 -2 -34h-386q4 -94 62 -149q53 -51 133 -51q92 0 151 62l33 -51q-73 -72 -187 -72q-162 0 -229 137h-2q-68 -137 -229 -137q-111 0 -186 71q-79 75 -79 191q0 117 79 193z
M891 303q-4 75 -45 117q-38 38 -97 38q-65 0 -111 -40q-50 -42 -62 -115h315zM167 104q56 -55 138 -55t137 56q58 58 58 149q0 89 -58 145q-56 54 -137 54q-82 0 -138 -56q-57 -57 -57 -147q0 -89 57 -146z" />
    <glyph glyph-name="Racute" unicode="&#x154;" horiz-adv-x="605" 
d="M107 641h-65v62h298q89 0 145 -54q57 -55 57 -146q0 -77 -42 -129q-38 -47 -94 -59v-2q14 -8 24 -28l101 -200q11 -23 50 -23h14v-62h-31q-44 0 -61 9q-19 10 -36 44l-101 201q-14 27 -28 35q-13 7 -43 7h-118v-296h-70v641zM333 358q63 0 100 39q36 38 36 104
q0 65 -36 103q-37 37 -99 37h-157v-283h156zM323 871h76l-87 -119h-59z" />
    <glyph glyph-name="racute" unicode="&#x155;" horiz-adv-x="361" 
d="M87 422q0 22 -22 22h-42v59h70q61 0 61 -57v-34q0 -21 -2 -38h2q42 134 159 134q14 0 27 -3v-67q-12 2 -25 2q-107 0 -146 -130q-14 -45 -14 -98v-212h-68v422zM225 703h76l-87 -119h-59z" />
    <glyph glyph-name="Rcommaaccent" unicode="&#x156;" horiz-adv-x="605" 
d="M107 641h-65v62h298q89 0 145 -54q57 -55 57 -146q0 -77 -42 -129q-38 -47 -94 -59v-2q14 -8 24 -28l101 -200q11 -23 50 -23h14v-62h-31q-44 0 -61 9q-19 10 -36 44l-101 201q-14 27 -28 35q-13 7 -43 7h-118v-296h-70v641zM333 358q63 0 100 39q36 38 36 104
q0 65 -36 103q-37 37 -99 37h-157v-283h156zM360 -63q7 -24 7 -48q0 -36 -24 -89h-53q19 48 19 80q0 28 -11 57h62z" />
    <glyph glyph-name="rcommaaccent" unicode="&#x157;" horiz-adv-x="361" 
d="M87 422q0 22 -22 22h-42v59h70q61 0 61 -57v-34q0 -21 -2 -38h2q42 134 159 134q14 0 27 -3v-67q-12 2 -25 2q-107 0 -146 -130q-14 -45 -14 -98v-212h-68v422zM155 -63q7 -24 7 -48q0 -36 -24 -89h-53q19 48 19 80q0 28 -11 57h62z" />
    <glyph glyph-name="Rcaron" unicode="&#x158;" horiz-adv-x="605" 
d="M107 641h-65v62h298q89 0 145 -54q57 -55 57 -146q0 -77 -42 -129q-38 -47 -94 -59v-2q14 -8 24 -28l101 -200q11 -23 50 -23h14v-62h-31q-44 0 -61 9q-19 10 -36 44l-101 201q-14 27 -28 35q-13 7 -43 7h-118v-296h-70v641zM333 358q63 0 100 39q36 38 36 104
q0 65 -36 103q-37 37 -99 37h-157v-283h156zM164 871h64l54 -80h2l54 80h63l-84 -119h-69z" />
    <glyph glyph-name="rcaron" unicode="&#x159;" horiz-adv-x="361" 
d="M87 422q0 22 -22 22h-42v59h70q61 0 61 -57v-34q0 -21 -2 -38h2q42 134 159 134q14 0 27 -3v-67q-12 2 -25 2q-107 0 -146 -130q-14 -45 -14 -98v-212h-68v422zM67 703h64l54 -80h2l54 80h63l-84 -119h-69z" />
    <glyph glyph-name="Sacute" unicode="&#x15a;" horiz-adv-x="518" 
d="M80 139q71 -86 182 -86q59 0 98 34q41 36 41 91q0 58 -54 99q-28 21 -119 63q-84 39 -120 72q-54 50 -54 123q0 75 59 127q61 53 156 53q66 0 121 -26q69 -33 69 -95v-50h-66v33q0 31 -37 52q-36 21 -86 21q-66 0 -106 -34q-38 -32 -38 -79q0 -54 54 -92q24 -16 120 -60
q82 -37 119 -73q54 -52 54 -130q0 -82 -57 -136q-60 -58 -156 -58q-144 0 -223 100zM305 871h76l-87 -119h-59z" />
    <glyph glyph-name="sacute" unicode="&#x15b;" horiz-adv-x="440" 
d="M68 123q56 -76 155 -76q45 0 74 20q32 22 32 60q0 36 -44 63q-18 11 -97 44q-141 58 -141 145q0 66 52 102q48 34 127 34q52 0 96 -19q57 -25 57 -72v-43h-64v24q0 25 -31 39q-25 12 -56 12q-112 0 -112 -73q0 -37 44 -64q18 -11 97 -43q141 -57 141 -147q0 -62 -50 -102
q-50 -39 -126 -39q-131 0 -193 88zM259 703h76l-87 -119h-59z" />
    <glyph glyph-name="Scircumflex" unicode="&#x15c;" horiz-adv-x="518" 
d="M80 139q71 -86 182 -86q59 0 98 34q41 36 41 91q0 58 -54 99q-28 21 -119 63q-84 39 -120 72q-54 50 -54 123q0 75 59 127q61 53 156 53q66 0 121 -26q69 -33 69 -95v-50h-66v33q0 31 -37 52q-36 21 -86 21q-66 0 -106 -34q-38 -32 -38 -79q0 -54 54 -92q24 -16 120 -60
q82 -37 119 -73q54 -52 54 -130q0 -82 -57 -136q-60 -58 -156 -58q-144 0 -223 100zM230 871h70l83 -119h-63l-54 81h-2l-54 -81h-63z" />
    <glyph glyph-name="scircumflex" unicode="&#x15d;" horiz-adv-x="440" 
d="M68 123q56 -76 155 -76q45 0 74 20q32 22 32 60q0 36 -44 63q-18 11 -97 44q-141 58 -141 145q0 66 52 102q48 34 127 34q52 0 96 -19q57 -25 57 -72v-43h-64v24q0 25 -31 39q-25 12 -56 12q-112 0 -112 -73q0 -37 44 -64q18 -11 97 -43q141 -57 141 -147q0 -62 -50 -102
q-50 -39 -126 -39q-131 0 -193 88zM184 703h70l83 -119h-63l-54 81h-2l-54 -81h-63z" />
    <glyph glyph-name="Scedilla" unicode="&#x15e;" horiz-adv-x="518" 
d="M80 139q71 -86 182 -86q59 0 98 34q41 36 41 91q0 58 -54 99q-28 21 -119 63q-84 39 -120 72q-54 50 -54 123q0 75 59 127q61 53 156 53q66 0 121 -26q69 -33 69 -95v-50h-66v33q0 31 -37 52q-36 21 -86 21q-66 0 -106 -34q-38 -32 -38 -79q0 -54 54 -92q24 -16 120 -60
q82 -37 119 -73q54 -52 54 -130t-52 -132q-55 -57 -145 -62l-8 -43q70 -10 70 -71q0 -79 -96 -79q-29 0 -49 5v48q19 -6 41 -6q51 0 51 34t-57 34q-7 0 -15 -1l19 81q-126 11 -195 98z" />
    <glyph glyph-name="scedilla" unicode="&#x15f;" horiz-adv-x="440" 
d="M68 123q56 -76 155 -76q45 0 74 20q32 22 32 60q0 36 -44 63q-18 11 -97 44q-141 58 -141 145q0 66 52 102q48 34 127 34q52 0 96 -19q57 -25 57 -72v-43h-64v24q0 25 -31 39q-25 12 -56 12q-112 0 -112 -73q0 -37 44 -64q18 -11 97 -43q141 -57 141 -147q0 -61 -48 -100
q-47 -38 -120 -41l-8 -43q70 -10 70 -71q0 -79 -96 -79q-29 0 -49 5v48q19 -6 41 -6q51 0 51 34t-57 34q-7 0 -15 -1l19 82q-106 12 -157 85z" />
    <glyph glyph-name="Scaron" unicode="&#x160;" horiz-adv-x="518" 
d="M80 139q71 -86 182 -86q59 0 98 34q41 36 41 91q0 58 -54 99q-28 21 -119 63q-84 39 -120 72q-54 50 -54 123q0 75 59 127q61 53 156 53q66 0 121 -26q69 -33 69 -95v-50h-66v33q0 31 -37 52q-36 21 -86 21q-66 0 -106 -34q-38 -32 -38 -79q0 -54 54 -92q24 -16 120 -60
q82 -37 119 -73q54 -52 54 -130q0 -82 -57 -136q-60 -58 -156 -58q-144 0 -223 100zM147 871h64l54 -80h2l54 80h63l-84 -119h-69z" />
    <glyph glyph-name="scaron" unicode="&#x161;" horiz-adv-x="440" 
d="M68 123q56 -76 155 -76q45 0 74 20q32 22 32 60q0 36 -44 63q-18 11 -97 44q-141 58 -141 145q0 66 52 102q48 34 127 34q52 0 96 -19q57 -25 57 -72v-43h-64v24q0 25 -31 39q-25 12 -56 12q-112 0 -112 -73q0 -37 44 -64q18 -11 97 -43q141 -57 141 -147q0 -62 -50 -102
q-50 -39 -126 -39q-131 0 -193 88zM101 703h64l54 -80h2l54 80h63l-84 -119h-69z" />
    <glyph glyph-name="Tcommaaccent" unicode="&#x162;" horiz-adv-x="620" 
d="M345 641v-641h-14l-10 -55q70 -10 70 -71q0 -79 -96 -79q-29 0 -50 5v48q19 -6 42 -6q51 0 51 34t-57 34q-7 0 -15 -1l21 91h-12v641h-174q-22 0 -22 -22v-47h-64v74q0 32 12 45q13 12 45 12h476q32 0 45 -12q12 -13 12 -45v-74h-65v47q0 22 -22 22h-173z" />
    <glyph glyph-name="tcommaaccent" unicode="&#x163;" horiz-adv-x="335" 
d="M93 446h-66v57h67v139h67v-139h126v-57h-126v-256q0 -133 113 -133q14 0 23 2v-61q-12 -2 -29 -2q-25 0 -49 5l-10 -56q70 -10 70 -71q0 -79 -96 -79q-29 0 -49 5v48q19 -6 41 -6q51 0 51 34t-57 34q-7 0 -15 -1l25 105q-86 41 -86 169v263z" />
    <glyph glyph-name="Tcaron" unicode="&#x164;" horiz-adv-x="620" 
d="M275 641h-174q-22 0 -22 -22v-47h-64v74q0 32 12 45q13 12 45 12h476q32 0 45 -12q12 -13 12 -45v-74h-65v47q0 22 -22 22h-173v-641h-70v641zM192 871h64l54 -80h2l54 80h63l-84 -119h-69z" />
    <glyph glyph-name="tcaron" unicode="&#x165;" horiz-adv-x="348" 
d="M94 446h-66v57h67v139h67v-139h126v-57h-126v-256q0 -133 113 -133q14 0 23 2v-61q-12 -2 -29 -2q-175 0 -175 187v263zM292 703q7 -24 7 -48q0 -36 -24 -89h-53q19 48 19 80q0 28 -11 57h62z" />
    <glyph glyph-name="Tbar" unicode="&#x166;" horiz-adv-x="620" 
d="M275 324h-161v57h161v260h-174q-22 0 -22 -22v-47h-64v74q0 32 12 45q13 12 45 12h476q32 0 45 -12q12 -13 12 -45v-74h-65v47q0 22 -22 22h-173v-260h165v-57h-165v-324h-70v324z" />
    <glyph glyph-name="tbar" unicode="&#x167;" horiz-adv-x="335" 
d="M93 278h-66v53h66v115h-66v57h67v139h67v-139h126v-57h-126v-115h126v-53h-126v-90q0 -131 113 -131q14 0 23 2v-61q-12 -2 -29 -2q-175 0 -175 187v95z" />
    <glyph glyph-name="Utilde" unicode="&#x168;" horiz-adv-x="717" 
d="M99 619q0 22 -22 22h-43v62h74q61 0 61 -61v-398q0 -87 51 -139q52 -51 138 -51q87 0 138 51q52 52 52 141v396q0 61 61 61h74v-62h-43q-22 0 -22 -22v-378q0 -114 -71 -183q-72 -70 -188 -70t-188 70q-72 69 -72 183v378zM202 755q0 117 93 117q36 0 71 -36t55 -36
q40 0 40 69h53q0 -117 -93 -117q-37 0 -72 36q-35 35 -55 35q-40 0 -40 -68h-52z" />
    <glyph glyph-name="utilde" unicode="&#x169;" horiz-adv-x="603" 
d="M85 422q0 22 -22 22h-42v59h71q61 0 61 -59v-243q0 -71 19 -104q25 -45 91 -45q82 0 135 64q50 61 50 146v241h68v-422q0 -22 22 -22h42v-59h-69q-61 0 -61 56v23q0 20 2 36h-2q-19 -46 -64 -82q-58 -45 -132 -45q-169 0 -169 195v239zM137 587q0 117 93 117q36 0 71 -36
t55 -36q40 0 40 69h53q0 -117 -93 -117q-37 0 -72 36q-35 35 -55 35q-40 0 -40 -68h-52z" />
    <glyph glyph-name="Umacron" unicode="&#x16a;" horiz-adv-x="717" 
d="M99 619q0 22 -22 22h-43v62h74q61 0 61 -61v-398q0 -87 51 -139q52 -51 138 -51q87 0 138 51q52 52 52 141v396q0 61 61 61h74v-62h-43q-22 0 -22 -22v-378q0 -114 -71 -183q-72 -70 -188 -70t-188 70q-72 69 -72 183v378zM237 839h246v-54h-246v54z" />
    <glyph glyph-name="umacron" unicode="&#x16b;" horiz-adv-x="603" 
d="M85 422q0 22 -22 22h-42v59h71q61 0 61 -59v-243q0 -71 19 -104q25 -45 91 -45q82 0 135 64q50 61 50 146v241h68v-422q0 -22 22 -22h42v-59h-69q-61 0 -61 56v23q0 20 2 36h-2q-19 -46 -64 -82q-58 -45 -132 -45q-169 0 -169 195v239zM172 671h246v-54h-246v54z" />
    <glyph glyph-name="Ubreve" unicode="&#x16c;" horiz-adv-x="717" 
d="M99 619q0 22 -22 22h-43v62h74q61 0 61 -61v-398q0 -87 51 -139q52 -51 138 -51q87 0 138 51q52 52 52 141v396q0 61 61 61h74v-62h-43q-22 0 -22 -22v-378q0 -114 -71 -183q-72 -70 -188 -70t-188 70q-72 69 -72 183v378zM282 776q-36 30 -36 80v15h52v-13q0 -62 62 -62
q61 0 61 62v13h52v-15q0 -50 -35 -80q-32 -27 -78 -27t-78 27z" />
    <glyph glyph-name="ubreve" unicode="&#x16d;" horiz-adv-x="603" 
d="M85 422q0 22 -22 22h-42v59h71q61 0 61 -59v-243q0 -71 19 -104q25 -45 91 -45q82 0 135 64q50 61 50 146v241h68v-422q0 -22 22 -22h42v-59h-69q-61 0 -61 56v23q0 20 2 36h-2q-19 -46 -64 -82q-58 -45 -132 -45q-169 0 -169 195v239zM217 608q-36 30 -36 80v15h52v-13
q0 -62 62 -62q61 0 61 62v13h52v-15q0 -50 -35 -80q-32 -27 -78 -27t-78 27z" />
    <glyph glyph-name="Uring" unicode="&#x16e;" horiz-adv-x="717" 
d="M99 619q0 22 -22 22h-43v62h74q61 0 61 -61v-398q0 -87 51 -139q52 -51 138 -51q87 0 138 51q52 52 52 141v396q0 61 61 61h74v-62h-43q-22 0 -22 -22v-378q0 -114 -71 -183q-72 -70 -188 -70t-188 70q-72 69 -72 183v378zM308 761q-22 20 -22 51t22 51q21 20 52 20
t52 -20q22 -20 22 -51t-22 -51q-21 -20 -52 -20t-52 20zM393 812q0 34 -33 34t-33 -34q0 -33 33 -33t33 33z" />
    <glyph glyph-name="uring" unicode="&#x16f;" horiz-adv-x="603" 
d="M85 422q0 22 -22 22h-42v59h71q61 0 61 -59v-243q0 -71 19 -104q25 -45 91 -45q82 0 135 64q50 61 50 146v241h68v-422q0 -22 22 -22h42v-59h-69q-61 0 -61 56v23q0 20 2 36h-2q-19 -46 -64 -82q-58 -45 -132 -45q-169 0 -169 195v239zM243 593q-22 20 -22 51t22 51
q21 20 52 20t52 -20q22 -20 22 -51t-22 -51q-21 -20 -52 -20t-52 20zM328 644q0 34 -33 34t-33 -34q0 -33 33 -33t33 33z" />
    <glyph glyph-name="Uhungarumlaut" unicode="&#x170;" horiz-adv-x="717" 
d="M99 619q0 22 -22 22h-43v62h74q61 0 61 -61v-398q0 -87 51 -139q52 -51 138 -51q87 0 138 51q52 52 52 141v396q0 61 61 61h74v-62h-43q-22 0 -22 -22v-378q0 -114 -71 -183q-72 -70 -188 -70t-188 70q-72 69 -72 183v378zM465 871h76l-87 -119h-59zM328 871h65l-67 -119
h-64z" />
    <glyph glyph-name="uhungarumlaut" unicode="&#x171;" horiz-adv-x="603" 
d="M85 422q0 22 -22 22h-42v59h71q61 0 61 -59v-243q0 -71 19 -104q25 -45 91 -45q82 0 135 64q50 61 50 146v241h68v-422q0 -22 22 -22h42v-59h-69q-61 0 -61 56v23q0 20 2 36h-2q-19 -46 -64 -82q-58 -45 -132 -45q-169 0 -169 195v239zM400 703h76l-87 -119h-59zM263 703
h65l-67 -119h-64z" />
    <glyph glyph-name="Uogonek" unicode="&#x172;" horiz-adv-x="717" 
d="M99 619q0 22 -22 22h-43v62h74q61 0 61 -61v-398q0 -87 51 -139q52 -51 138 -51q87 0 138 51q52 52 52 141v396q0 61 61 61h74v-62h-43q-22 0 -22 -22v-384q0 -146 -136 -222q-95 -55 -95 -112q0 -45 62 -50l-16 -56q-27 2 -55 14q-55 25 -55 78t52 101v2q-11 -1 -20 -1
q-114 0 -185 70t-71 182v378z" />
    <glyph glyph-name="uogonek" unicode="&#x173;" horiz-adv-x="603" 
d="M85 183v239q0 22 -22 22h-42v59h71q39 0 52 -21q9 -16 9 -66v-215q0 -71 19 -104q25 -45 91 -45q82 0 135 64q50 61 50 146v241h68v-422q0 -22 22 -22h42v-59q-72 -58 -72 -99q0 -45 62 -50l-15 -56q-27 2 -55 14q-55 25 -55 78q0 64 67 112v2h-11q-51 0 -51 55v23
q0 19 2 35h-3q-12 -31 -43 -63q-61 -63 -152 -63q-169 0 -169 195z" />
    <glyph glyph-name="Wcircumflex" unicode="&#x174;" horiz-adv-x="945" 
d="M66 619q-6 22 -37 22h-12v62h31q40 0 57 -11q19 -12 28 -47l122 -485q9 -36 15 -75h2q9 39 19 75l155 540h69l141 -540q10 -36 16 -75h2q7 39 16 75l122 485q9 35 28 47q17 11 57 11h31v-62h-11q-31 0 -37 -22l-162 -619h-83l-131 489q-12 45 -23 104h-2
q-12 -58 -25 -103l-144 -490h-83zM445 871h70l83 -119h-63l-54 81h-2l-54 -81h-63z" />
    <glyph glyph-name="wcircumflex" unicode="&#x175;" horiz-adv-x="834" 
d="M58 421q-8 23 -35 23h-13v59h35q37 0 52 -10q16 -11 27 -46l103 -319q8 -24 15 -54h2q8 30 16 54l123 373h68l123 -373q8 -24 16 -54h2q6 29 14 54l104 319q11 35 27 46q15 10 52 10h35v-59h-14q-27 0 -35 -23l-144 -421h-75l-123 358q-8 25 -15 54h-2q-7 -29 -16 -54
l-122 -358h-76zM382 703h70l83 -119h-63l-54 81h-2l-54 -81h-63z" />
    <glyph glyph-name="Ycircumflex" unicode="&#x176;" horiz-adv-x="592" 
d="M261 306l-188 309q-16 26 -47 26h-16v62h27q37 0 55 -10q19 -10 41 -46l119 -199q22 -37 43 -79h2q21 42 43 79l119 199q22 36 41 46q18 10 55 10h27v-62h-16q-31 0 -46 -26l-189 -309v-306h-70v306zM262 871h70l83 -119h-63l-54 81h-2l-54 -81h-63z" />
    <glyph glyph-name="ycircumflex" unicode="&#x177;" horiz-adv-x="539" 
d="M40 -111q0 -4 21 -19q27 -19 54 -19q59 0 93 82l30 69l-177 419q-10 23 -35 23h-10v59h31q34 0 49 -11q15 -10 28 -44l129 -314q10 -25 18 -54h2q7 29 17 54l124 314q13 34 28 44q15 11 50 11h31v-59h-10q-26 0 -35 -23l-217 -526q-43 -105 -144 -105q-70 0 -109 49z
M233 703h70l83 -119h-63l-54 81h-2l-54 -81h-63z" />
    <glyph glyph-name="Ydieresis" unicode="&#x178;" horiz-adv-x="592" 
d="M261 306l-188 309q-16 26 -47 26h-16v62h27q37 0 55 -10q19 -10 41 -46l119 -199q22 -37 43 -79h2q21 42 43 79l119 199q22 36 41 46q18 10 55 10h27v-62h-16q-31 0 -46 -26l-189 -309v-306h-70v306zM343 871h59v-86h-59v86zM193 871h59v-86h-59v86z" />
    <glyph glyph-name="Zacute" unicode="&#x179;" horiz-adv-x="575" 
d="M19 49l377 528q26 37 51 64v2q-17 -2 -51 -2h-280q-22 0 -22 -22v-47h-65v70q0 61 61 61h443v-49l-376 -528q-26 -37 -52 -64v-2q17 2 52 2h303q22 0 22 22v47h65v-70q0 -61 -61 -61h-467v49zM332 871h76l-87 -119h-59z" />
    <glyph glyph-name="zacute" unicode="&#x17a;" horiz-adv-x="499" 
d="M39 44l283 353q19 24 40 46v2q-17 -2 -50 -2h-184q-22 0 -22 -22v-39h-64v60q0 61 61 61h349v-45l-282 -352q-20 -24 -42 -46v-2q18 2 51 2h208q22 0 22 22v39h64v-60q0 -61 -61 -61h-373v44zM298 703h76l-87 -119h-59z" />
    <glyph glyph-name="Zdotaccent" unicode="&#x17b;" horiz-adv-x="575" 
d="M19 49l377 528q26 37 51 64v2q-17 -2 -51 -2h-280q-22 0 -22 -22v-47h-65v70q0 61 61 61h443v-49l-376 -528q-26 -37 -52 -64v-2q17 2 52 2h303q22 0 22 22v47h65v-70q0 -61 -61 -61h-467v49zM259 871h66v-86h-66v86z" />
    <glyph glyph-name="zdotaccent" unicode="&#x17c;" horiz-adv-x="499" 
d="M39 44l283 353q19 24 40 46v2q-17 -2 -50 -2h-184q-22 0 -22 -22v-39h-64v60q0 61 61 61h349v-45l-282 -352q-20 -24 -42 -46v-2q18 2 51 2h208q22 0 22 22v39h64v-60q0 -61 -61 -61h-373v44zM225 703h66v-86h-66v86z" />
    <glyph glyph-name="Zcaron" unicode="&#x17d;" horiz-adv-x="575" 
d="M19 49l377 528q26 37 51 64v2q-17 -2 -51 -2h-280q-22 0 -22 -22v-47h-65v70q0 61 61 61h443v-49l-376 -528q-26 -37 -52 -64v-2q17 2 52 2h303q22 0 22 22v47h65v-70q0 -61 -61 -61h-467v49zM174 871h64l54 -80h2l54 80h63l-84 -119h-69z" />
    <glyph glyph-name="zcaron" unicode="&#x17e;" horiz-adv-x="499" 
d="M39 44l283 353q19 24 40 46v2q-17 -2 -50 -2h-184q-22 0 -22 -22v-39h-64v60q0 61 61 61h349v-45l-282 -352q-20 -24 -42 -46v-2q18 2 51 2h208q22 0 22 22v39h64v-60q0 -61 -61 -61h-373v44zM139 703h64l54 -80h2l54 80h63l-84 -119h-69z" />
    <glyph glyph-name="longs" unicode="&#x17f;" horiz-adv-x="305" 
d="M88 446h-63v57h63v18q0 109 66 156q43 31 107 31q19 0 31 -2v-61q-9 2 -24 2q-112 0 -112 -126v-521h-68v446z" />
    <glyph glyph-name="florin" unicode="&#x192;" horiz-adv-x="346" 
d="M-53 -54l6 60q9 -2 23 -2q112 0 123 129l20 231h-79v58h85l9 99q9 109 78 156q46 31 111 31q19 0 31 -2l-6 -61q-9 2 -23 2q-112 0 -124 -129l-9 -96h109v-58h-114l-20 -234q-10 -109 -79 -155q-46 -31 -111 -31q-18 0 -30 2z" />
    <glyph glyph-name="Scommaaccent" unicode="&#x218;" horiz-adv-x="518" 
d="M80 139q71 -86 182 -86q59 0 98 34q41 36 41 91q0 58 -54 99q-28 21 -119 63q-84 39 -120 72q-54 50 -54 123q0 75 59 127q61 53 156 53q66 0 121 -26q69 -33 69 -95v-50h-66v33q0 31 -37 52q-36 21 -86 21q-66 0 -106 -34q-38 -32 -38 -79q0 -54 54 -92q24 -16 120 -60
q82 -37 119 -73q54 -52 54 -130q0 -82 -57 -136q-60 -58 -156 -58q-144 0 -223 100zM291 -63q7 -24 7 -48q0 -36 -24 -89h-53q19 48 19 80q0 28 -11 57h62z" />
    <glyph glyph-name="scommaaccent" unicode="&#x219;" horiz-adv-x="440" 
d="M68 123q56 -76 155 -76q45 0 74 20q32 22 32 60q0 36 -44 63q-18 11 -97 44q-141 58 -141 145q0 66 52 102q48 34 127 34q52 0 96 -19q57 -25 57 -72v-43h-64v24q0 25 -31 39q-25 12 -56 12q-112 0 -112 -73q0 -37 44 -64q18 -11 97 -43q141 -57 141 -147q0 -62 -50 -102
q-50 -39 -126 -39q-131 0 -193 88zM249 -63q7 -24 7 -48q0 -36 -24 -89h-53q19 48 19 80q0 28 -11 57h62z" />
    <glyph glyph-name="uni021A" unicode="&#x21a;" horiz-adv-x="620" 
d="M275 641h-174q-22 0 -22 -22v-47h-64v74q0 32 12 45q13 12 45 12h476q32 0 45 -12q12 -13 12 -45v-74h-65v47q0 22 -22 22h-173v-641h-70v641zM339 -63q7 -24 7 -48q0 -36 -24 -89h-53q19 48 19 80q0 28 -11 57h62z" />
    <glyph glyph-name="uni021B" unicode="&#x21b;" horiz-adv-x="335" 
d="M93 446h-66v57h67v139h67v-139h126v-57h-126v-256q0 -133 113 -133q14 0 23 2v-61q-12 -2 -29 -2q-175 0 -175 187v263zM222 -63q7 -24 7 -48q0 -36 -24 -89h-53q19 48 19 80q0 28 -11 57h62z" />
    <glyph glyph-name="circumflex" unicode="&#x2c6;" horiz-adv-x="470" 
d="M200 871h70l83 -119h-63l-54 81h-2l-54 -81h-63z" />
    <glyph glyph-name="caron" unicode="&#x2c7;" horiz-adv-x="474" 
d="M116 871h64l54 -80h2l54 80h63l-84 -119h-69z" />
    <glyph glyph-name="breve" unicode="&#x2d8;" horiz-adv-x="485" 
d="M155 776q-36 30 -36 80v15h52v-13q0 -62 62 -62q61 0 61 62v13h52v-15q0 -50 -35 -80q-32 -27 -78 -27t-78 27z" />
    <glyph glyph-name="dotaccent" unicode="&#x2d9;" horiz-adv-x="223" 
d="M78 871h66v-86h-66v86z" />
    <glyph glyph-name="ring" unicode="&#x2da;" horiz-adv-x="376" 
d="M136 761q-22 20 -22 51t22 51q21 20 52 20t52 -20q22 -20 22 -51t-22 -51q-21 -20 -52 -20t-52 20zM221 812q0 34 -33 34t-33 -34q0 -33 33 -33t33 33z" />
    <glyph glyph-name="ogonek" unicode="&#x2db;" horiz-adv-x="343" 
d="M198 19l53 -11q-83 -56 -83 -107q0 -45 62 -50l-15 -56q-27 2 -55 14q-55 25 -55 78q0 79 93 132z" />
    <glyph glyph-name="tilde" unicode="&#x2dc;" horiz-adv-x="492" 
d="M89 755q0 117 93 117q36 0 71 -36t55 -36q40 0 40 69h53q0 -117 -93 -117q-37 0 -72 36q-35 35 -55 35q-40 0 -40 -68h-52z" />
    <glyph glyph-name="hungarumlaut" unicode="&#x2dd;" horiz-adv-x="516" 
d="M308 871h76l-87 -119h-59zM171 871h65l-67 -119h-64z" />
    <glyph glyph-name="uni1E9E" unicode="&#x1e9e;" horiz-adv-x="621" 
d="M34 62h43q22 0 22 22v432q0 80 54 133q54 54 134 54h264v-48l-157 -223q-16 -23 -26 -35v-2h31q76 -3 129 -61q52 -57 52 -134q0 -83 -59 -141q-59 -59 -142 -59h-95v62h91q58 0 96 41q37 40 37 97t-37 97t-94 40h-91v49l136 196q30 45 44 59v2q-7 -2 -43 -2h-131
q-54 0 -89 -36q-34 -35 -34 -88v-456q0 -61 -61 -61h-74v62z" />
    <glyph glyph-name="endash" unicode="&#x2013;" horiz-adv-x="642" 
d="M71 313h500v-58h-500v58z" />
    <glyph glyph-name="emdash" unicode="&#x2014;" horiz-adv-x="842" 
d="M71 313h700v-58h-700v58z" />
    <glyph glyph-name="quoteleft" unicode="&#x2018;" horiz-adv-x="212" 
d="M107 712h54l-39 -172h-71z" />
    <glyph glyph-name="quoteright" unicode="&#x2019;" horiz-adv-x="212" 
d="M90 713h71l-56 -172h-54z" />
    <glyph glyph-name="quotesinglbase" unicode="&#x201a;" horiz-adv-x="212" 
d="M161 82l-56 -172h-54l39 172h71z" />
    <glyph glyph-name="quotedblleft" unicode="&#x201c;" horiz-adv-x="330" 
d="M225 712h54l-39 -172h-71zM107 712h54l-39 -172h-71z" />
    <glyph glyph-name="quotedblright" unicode="&#x201d;" horiz-adv-x="330" 
d="M208 713h71l-56 -172h-54zM90 713h71l-56 -172h-54z" />
    <glyph glyph-name="quotedblbase" unicode="&#x201e;" horiz-adv-x="330" 
d="M208 82h71l-56 -172h-54zM161 82l-56 -172h-54l39 172h71z" />
    <glyph glyph-name="dagger" unicode="&#x2020;" horiz-adv-x="363" 
d="M146 445h-117v58h117v200h67v-200h121v-58h-121v-495h-67v495z" />
    <glyph glyph-name="daggerdbl" unicode="&#x2021;" horiz-adv-x="363" 
d="M146 179h-117v58h117v208h-117v58h117v200h67v-200h121v-58h-121v-208h121v-58h-121v-229h-67v229z" />
    <glyph glyph-name="bullet" unicode="&#x2022;" horiz-adv-x="439" 
d="M119 190q-42 42 -42 101t42 101t101 42t101 -42q41 -42 41 -101t-41 -101q-42 -42 -101 -42t-101 42z" />
    <glyph glyph-name="ellipsis" unicode="&#x2026;" horiz-adv-x="817" 
d="M605 80h77v-80h-77v80zM370 80h77v-80h-77v80zM135 80h77v-80h-77v80z" />
    <glyph glyph-name="perthousand" unicode="&#x2030;" horiz-adv-x="1057" 
d="M103 478q-41 40 -41 98q0 57 41 98t99 41t100 -41q41 -41 41 -98q0 -58 -41 -98q-41 -41 -100 -41q-58 0 -99 41zM604 703h71l-535 -703h-72zM260 517q24 24 24 59q0 34 -24 58q-24 25 -58 25t-58 -25q-23 -24 -23 -58q0 -35 23 -59q24 -24 58 -24t58 24zM777 225
q41 41 99 41t100 -41q41 -41 41 -99q0 -57 -41 -97q-42 -41 -100 -41t-99 41q-41 40 -41 97q0 58 41 99zM441 225q41 41 99 41t100 -41q41 -41 41 -99q0 -57 -41 -97q-42 -41 -100 -41t-99 41q-41 40 -41 97q0 58 41 99zM819 68q23 -24 57 -24t58 24t24 59q0 34 -24 58
q-24 25 -58 25t-57 -25q-23 -24 -23 -58q0 -35 23 -59zM483 68q23 -24 57 -24t58 24t24 59q0 34 -24 58q-24 25 -58 25t-57 -25q-23 -24 -23 -58q0 -35 23 -59z" />
    <glyph glyph-name="guilsinglleft" unicode="&#x2039;" horiz-adv-x="343" 
d="M38 282l164 206h73l-164 -206l164 -205h-73z" />
    <glyph glyph-name="guilsinglright" unicode="&#x203a;" horiz-adv-x="343" 
d="M230 282l-164 206h74l164 -206l-164 -205h-74z" />
    <glyph glyph-name="fraction" unicode="&#x2044;" horiz-adv-x="416" 
d="M325 703h63l-297 -703h-63z" />
    <glyph glyph-name="Euro" unicode="&#x20ac;" horiz-adv-x="590" 
d="M39 317h57q-2 18 -2 35q0 19 2 46h-57v51h66q30 118 121 191q93 75 215 75q53 0 92 -12l-16 -65q-36 11 -77 11q-95 0 -165 -55q-69 -54 -95 -145h303l-10 -51h-304q-4 -20 -4 -44q0 -12 2 -37h291l-9 -51h-270q23 -95 94 -153q72 -59 169 -59q51 0 90 14l16 -64
q-46 -16 -107 -16q-126 0 -220 78q-91 77 -118 200h-64v51z" />
    <glyph glyph-name="trademark" unicode="&#x2122;" horiz-adv-x="976" 
d="M419 316h25q10 0 11 10l29 377h52l115 -251q9 -19 14 -41h2q5 22 14 41l115 251h52l29 -377q1 -10 11 -10h25v-51h-43q-27 0 -36 10q-10 9 -12 36l-20 251q-1 15 1 29h-2l-112 -244h-46l-112 244h-2q2 -14 1 -29l-20 -251q-2 -27 -12 -36q-9 -10 -36 -10h-43v51zM199 651
h-94q-10 0 -10 -10v-30h-52v46q0 26 10 36t37 10h276q27 0 37 -10t10 -36v-46h-52v30q0 10 -10 10h-95v-386h-57v386z" />
    <glyph glyph-name="minus" unicode="&#x2212;" 
d="M50 313h506v-58h-506v58z" />
    <glyph glyph-name="infinity" unicode="&#x221e;" horiz-adv-x="499" 
d="M128 227q-51 51 -51 122q0 72 51 122q50 50 122 50t122 -50t50 -122t-50 -122q-50 -51 -122 -51q-71 0 -122 51z" />
    <glyph glyph-name="approxequal" unicode="&#x2248;" 
d="M58 365q69 69 146 69q50 0 108 -35q57 -35 90 -35q61 0 113 56l33 -44q-67 -69 -146 -69q-50 0 -108 35q-57 35 -90 35q-57 0 -113 -56zM58 191q69 69 146 69q50 0 108 -35q57 -35 90 -35q59 0 113 56l33 -44q-67 -69 -146 -69q-50 0 -108 35q-57 35 -90 35
q-57 0 -113 -56z" />
    <glyph glyph-name="notequal" unicode="&#x2260;" 
d="M188 168h-118v58h159l86 116h-245v58h285l86 117l42 -30l-65 -87h118v-58h-158l-86 -116h244v-58h-284l-84 -114l-42 29z" />
    <glyph glyph-name="lessequal" unicode="&#x2264;" 
d="M69 309l452 202v-67l-367 -159v-2l367 -159v-67l-452 202v50zM521 -104v-58h-451v58h451z" />
    <glyph glyph-name="greaterequal" unicode="&#x2265;" 
d="M85 124l368 159v2l-368 159v67l452 -202v-50l-452 -202v67zM536 -104v-58h-451v58h451z" />
    <glyph glyph-name="glyph359" horiz-adv-x="600" 
d="M277 641h-175q-22 0 -22 -22v-47h-65v75q0 32 12 44t44 12h503v-62h-227v-641h-70v641z" />
    <glyph glyph-name="glyph360" horiz-adv-x="600" 
d="M253 641h-227v62h503q32 0 44 -12t12 -44v-75h-66v47q0 22 -22 22h-174v-641h-70v641z" />
    <glyph glyph-name="glyph361" horiz-adv-x="600" 
d="M265 641h-235v62h540v-62h-235v-641h-70v641z" />
    <glyph glyph-name="glyph362" horiz-adv-x="335" 
d="M199 -63q7 -24 7 -48q0 -36 -24 -89h-53q19 48 19 80q0 28 -11 57h62z" />
    <glyph glyph-name="glyph363" horiz-adv-x="1130" 
d="M42 406l126 71v151l265 142l134 -71l132 71l265 -142v-151l124 -71v-278l-124 -72v-152l-265 -141l-132 71l-134 -71l-265 141v152l-126 72v278zM208 78v-139l238 -126l121 66l118 -66l238 126v139l114 64v249l-114 66v136l-238 126l-118 -64l-121 64l-238 -126v-136
l-114 -66v-249zM143 379l99 58v123l215 114l110 -59l107 59l214 -114v-123l100 -58v-225l-100 -60v-121l-214 -114l-107 58l-110 -58l-215 114v121l-99 60v225zM503 0v217h218v53h-218v179h176q27 0 27 -27v-38h56v64q0 55 -56 55h-325v-54h62v-449h60z" />
    <glyph glyph-name="zero.tnum" horiz-adv-x="568" 
d="M42 352q0 363 242 363q243 0 243 -363q0 -364 -243 -364q-242 0 -242 364zM455 352q0 298 -171 298t-171 -298q0 -299 171 -299t171 299z" />
    <glyph glyph-name="one.tnum" horiz-adv-x="560" 
d="M100 62h157v516q0 20 1 39h-2q-7 -15 -35 -42l-75 -75l-44 45l159 158h66v-641h154v-62h-381v62z" />
    <glyph glyph-name="two.tnum" horiz-adv-x="560" 
d="M103 220q38 41 128 93q98 56 128 83q58 52 58 121q0 57 -39 94q-40 38 -105 38q-52 0 -89 -23q-36 -23 -36 -53v-33h-66v52q0 60 70 95q56 28 123 28q98 0 157 -58q57 -55 57 -139q0 -83 -58 -145q-38 -41 -128 -92q-98 -57 -128 -83q-58 -52 -58 -116q0 -20 23 -20h294
q22 0 22 22v47h65v-70q0 -61 -61 -61h-352q-35 0 -49 16t-14 53q0 88 58 151z" />
    <glyph glyph-name="three.tnum" horiz-adv-x="560" 
d="M85 138q72 -84 184 -84q64 0 111 42q48 44 48 110q0 68 -52 110q-48 38 -119 38h-49l-16 41l173 208q17 23 36 39v2q-20 -3 -57 -3h-183q-22 0 -22 -22v-47h-65v70q0 61 59 61h357v-46l-207 -243q82 -5 142 -49q75 -56 75 -158q0 -90 -66 -154q-67 -65 -166 -65
q-139 0 -225 98z" />
    <glyph glyph-name="four.tnum" horiz-adv-x="560" 
d="M14 240l342 463h75v-447h112v-62h-112v-194h-70v194h-347v46zM362 543q0 30 3 68h-2q-17 -29 -36 -54l-195 -258q-19 -25 -37 -44v-2q28 3 58 3h209v287z" />
    <glyph glyph-name="five.tnum" horiz-adv-x="560" 
d="M92 137q53 -83 163 -83q75 0 125 47t50 117q0 72 -53 119q-52 46 -129 46q-79 0 -135 -39l-36 15l30 283q6 61 61 61h231q60 0 60 -61v-70h-65v47q0 22 -22 22h-178q-19 0 -22 -22l-18 -159q-3 -25 -6 -40h2q44 26 106 26q106 0 177 -67q69 -66 69 -162q0 -95 -70 -161
q-71 -68 -177 -68q-87 0 -156 50q-34 25 -51 50z" />
    <glyph glyph-name="six.tnum" horiz-adv-x="560" 
d="M113 80q-70 89 -70 229q0 155 73 270q86 136 236 136q77 0 129 -29l-26 -61q-44 25 -102 25q-103 0 -168 -91q-56 -80 -67 -198h2q51 85 179 85q96 0 158 -62q61 -63 61 -161q0 -107 -64 -172q-62 -63 -157 -63q-113 0 -184 92zM168 124q54 -71 128 -71q70 0 111 48
q40 47 40 121q0 73 -43 118q-44 44 -116 44q-68 0 -120 -39q-50 -37 -50 -81q0 -75 50 -140z" />
    <glyph glyph-name="seven.tnum" horiz-adv-x="560" 
d="M402 576q20 38 39 65v2q-18 -2 -53 -2h-253q-22 0 -22 -22v-47h-66v70q0 61 60 61h415v-48l-348 -655h-78z" />
    <glyph glyph-name="eight.tnum" horiz-adv-x="560" 
d="M103 337q31 31 62 47v2q-96 45 -96 145q0 77 55 128q59 56 157 56t157 -53q58 -51 58 -134q0 -107 -94 -174v-2q113 -58 113 -161q0 -83 -68 -143q-69 -60 -168 -60q-98 0 -166 55q-73 59 -73 155q0 77 63 139zM337 384q22 0 54 44q35 48 35 98q0 56 -41 91
q-40 33 -104 33q-65 0 -104 -35q-38 -33 -38 -84q0 -50 40 -82q27 -21 95 -46q51 -19 63 -19zM163 93q48 -40 116 -40q65 0 113 39q51 40 51 100q0 50 -39 82q-27 23 -95 50q-66 28 -82 28q-27 0 -68 -43q-47 -50 -47 -108q0 -66 51 -108z" />
    <glyph glyph-name="nine.tnum" horiz-adv-x="560" 
d="M105 78q44 -25 102 -25q103 0 168 92q57 80 67 198h-2q-52 -86 -179 -86q-96 0 -157 62q-61 63 -61 161q0 107 64 172q61 63 156 63q113 0 184 -91q70 -90 70 -230q0 -155 -73 -270q-86 -136 -236 -136q-77 0 -129 29zM392 358q50 37 50 81q0 75 -50 140q-54 71 -128 71
q-70 0 -111 -48q-40 -47 -40 -121q0 -73 44 -118q43 -44 115 -44q68 0 120 39z" />
    <glyph glyph-name="T_h.dlig" horiz-adv-x="1113" 
d="M279 641h-178q-22 0 -22 -22v-47h-64v74q0 32 12 45q13 12 45 12h526q61 0 61 -59v-213q0 -23 -2 -41h2q16 41 59 76q60 49 141 49q169 0 169 -195v-239q0 -22 22 -22h42v-59h-71q-61 0 -61 61v241q0 71 -18 104q-25 45 -92 45q-83 0 -137 -61q-54 -60 -54 -149v-241h-68
v619q0 22 -22 22h-220v-641h-70v641z" />
    <glyph glyph-name="glyph376" horiz-adv-x="609" 
d="M278 641h-177q-22 0 -22 -22v-47h-64v74q0 32 12 45q13 12 45 12h522v-62h-246v-641h-70v641z" />
    <glyph glyph-name="glyph377" horiz-adv-x="609" 
d="M15 646q0 32 12 45q13 12 45 12h522v-62h-246v-641h-14l-11 -55q71 -10 71 -71q0 -79 -96 -79q-30 0 -50 5v48q19 -6 42 -6q51 0 51 34t-57 34q-8 0 -15 -1l21 91h-12v641h-177q-22 0 -22 -22v-47h-64v74z" />
    <glyph glyph-name="glyph378" horiz-adv-x="609" 
d="M196 871h63l54 -80h2l54 80h64l-84 -119h-70zM278 641h-177q-22 0 -22 -22v-47h-64v74q0 32 12 45q13 12 45 12h522v-62h-246v-641h-70v641z" />
    <glyph glyph-name="glyph379" horiz-adv-x="609" 
d="M278 324h-159v57h159v260h-177q-22 0 -22 -22v-47h-64v74q0 32 12 45q13 12 45 12h522v-62h-246v-260h163v-57h-163v-324h-70v324z" />
    <glyph glyph-name="glyph380" horiz-adv-x="609" 
d="M278 641h-177q-22 0 -22 -22v-47h-64v74q0 32 12 45q13 12 45 12h522v-62h-246v-641h-70v641zM342 -63q7 -24 7 -48q0 -36 -24 -89h-52q18 49 18 80q0 28 -11 57h62z" />
    <glyph glyph-name="hyphen.case" horiz-adv-x="432" 
d="M74 380h284v-62h-284v62z" />
    <glyph glyph-name="parenleft.case" horiz-adv-x="309" 
d="M193 760h64q-109 -184 -109 -393q0 -231 115 -432h-63q-115 188 -115 427q0 225 108 398z" />
    <glyph glyph-name="parenright.case" horiz-adv-x="309" 
d="M46 -65q115 201 115 432q0 209 -109 393h64q108 -175 108 -398q0 -239 -115 -427h-63z" />
    <glyph glyph-name="bracketleft.case" horiz-adv-x="303" 
d="M101 699q0 61 61 61h74v-56h-50q-22 0 -22 -22v-669q0 -22 22 -22h50v-56h-74q-61 0 -61 61v703z" />
    <glyph glyph-name="bracketright.case" horiz-adv-x="303" 
d="M117 -9q22 0 22 22v669q0 22 -22 22h-50v56h74q61 0 61 -61v-703q0 -61 -61 -61h-74v56h50z" />
    <glyph glyph-name="braceleft.case" horiz-adv-x="326" 
d="M118 208q0 65 -42 96q-22 16 -43 18v62q21 3 43 18q42 31 42 97v82q0 107 60 151q36 28 89 28h15v-56h-9q-92 0 -92 -125v-98q0 -61 -40 -100q-20 -20 -40 -27v-2q20 -6 40 -25q40 -38 40 -102v-110q0 -125 92 -125h9v-56q-6 -1 -15 -1q-53 0 -89 28q-60 44 -60 152v95z
" />
    <glyph glyph-name="braceright.case" horiz-adv-x="326" 
d="M44 -10h10q91 0 91 125v110q0 64 40 102q20 19 40 25v2q-80 29 -80 127v98q0 125 -91 125h-10v56h16q52 0 89 -28q59 -44 59 -151v-82q0 -66 43 -97q21 -15 42 -18v-62q-21 -2 -42 -18q-43 -31 -43 -96v-95q0 -107 -59 -152q-37 -28 -89 -28q-10 0 -16 1v56z" />
    <glyph glyph-name="at.case" horiz-adv-x="757" 
d="M146 611q104 107 251 107q126 0 190 -58q55 -50 55 -131v-315h71v-56h-269q-85 0 -143 57q-57 56 -57 135t57 135q57 57 143 57h130q-2 50 -42 82q-46 35 -130 35q-122 0 -207 -91q-84 -90 -84 -217q0 -129 84 -217q85 -89 212 -89v-60q-155 0 -261 107
q-105 105 -105 259q0 153 105 260zM353 254q40 -40 97 -40h124v275h-122q-59 0 -99 -41q-39 -40 -39 -98q0 -57 39 -96z" />
    <glyph glyph-name="guillemotleft.case" horiz-adv-x="522" 
d="M381 548h74l-164 -206l164 -205h-74l-164 205zM38 342l164 206h73l-164 -206l164 -205h-73z" />
    <glyph glyph-name="guillemotright.case" horiz-adv-x="522" 
d="M410 342l-164 206h74l164 -206l-164 -205h-74zM230 342l-164 206h74l164 -206l-164 -205h-74z" />
    <glyph glyph-name="guilsinglleft.case" horiz-adv-x="343" 
d="M38 342l164 206h73l-164 -206l164 -205h-73z" />
    <glyph glyph-name="guilsinglright.case" horiz-adv-x="343" 
d="M230 342l-164 206h74l164 -206l-164 -205h-74z" />
    <glyph glyph-name="endash.case" horiz-adv-x="642" 
d="M71 373h500v-58h-500v58z" />
    <glyph glyph-name="emdash.case" horiz-adv-x="842" 
d="M71 373h700v-58h-700v58z" />
    <glyph glyph-name="periodcentered.case" horiz-adv-x="215" 
d="M69 386h77v-80h-77v80z" />
    <glyph glyph-name="questiondown.case" horiz-adv-x="431" 
d="M205 703h77v-77h-77v77zM121 333q89 82 89 144v42h67v-45q0 -83 -87 -165t-87 -141q0 -49 37 -81q37 -34 94 -34q68 0 121 42l37 -50q-62 -57 -161 -57q-86 0 -143 50t-57 127q0 87 90 168z" />
    <glyph glyph-name="exclamdown.case" horiz-adv-x="297" 
d="M109 703h77v-77h-77v77zM116 519h64l3 -519h-70z" />
    <glyph glyph-name="bullet.case" horiz-adv-x="439" 
d="M119 251q-42 42 -42 101t42 101t101 42t101 -42q41 -42 41 -101t-41 -101q-42 -42 -101 -42t-101 42z" />
    </font>
</defs>
</svg>
